<?xml version="1.0" encoding="utf-8"?>
<!-- Generator: Adobe Illustrator 16.0.0, SVG Export Plug-In . SVG Version: 6.00 Build 0)  -->
<!DOCTYPE svg PUBLIC "-//W3C//DTD SVG 1.1//EN" "http://www.w3.org/Graphics/SVG/1.1/DTD/svg11.dtd">
<svg version="1.1" id="Layer_1" xmlns="http://www.w3.org/2000/svg" xmlns:xlink="http://www.w3.org/1999/xlink" x="0px" y="0px"
	 width="256px" height="256px" viewBox="-74.5 -112 256 256" enable-background="new -74.5 -112 256 256" xml:space="preserve">
<path fill="#EB5B27" d="M95.354,12.864c20.066,10.403,26.756,28.984,27.496,49.798c0,2.228-0.74,2.966-2.972,2.966
	c-12.635,1.491-26.012,2.235-38.646,3.725c-2.974,0-2.974-0.743-2.974-2.979c0.742-5.945,0-12.636-1.487-18.58
	c-2.976-11.89-13.379-19.326-25.269-19.326c-5.204,0-10.407,0-15.607,0c-2.977,0-3.717,0.746-3.717,3.719c0,12.634,0,25.27,0,37.904
	c0,2.974-0.746,4.463-3.718,4.463C16.57,75.3,5.42,76.781-6.474,78.266c-3.713,0.742-4.458,0-4.458-3.712
	c0-34.194,0-69.125,0-103.313c0-4.459,0-4.459,4.458-3.717C5.42-29.5,17.311-26.527,29.946-23.554c2.232,0,2.973,1.486,2.973,3.713
	c0,0,0,0,0,0.745c0,3.714,0,8.176,0,11.891c0,1.486,0,2.976,2.23,2.976c6.69,0,14.123,0,20.812-0.746
	c4.459-0.744,8.917-2.972,11.892-5.945c1.485-1.486,2.972-2.231,5.202-1.486c11.15,2.973,22.299,5.945,33.446,8.177
	c2.974,0.741,2.974,2.228,0.742,3.714c-3.714,3.717-7.432,7.431-11.89,9.663C92.38,11.378,93.866,12.119,95.354,12.864z"/>
<path fill="#EB5B27" d="M25.488-96.393c11.893,0,23.783,0,35.678,0.745c14.121,1.486,26.757,6.687,37.9,15.608
	c9.662,8.173,15.607,19.321,17.839,31.215c1.486,7.432,1.486,14.863,1.486,22.298c0,2.973-0.741,4.459-4.459,2.973
	c-11.89-4.459-23.783-8.177-34.932-11.894c-2.229-0.742-3.714-2.228-3.714-4.459c-1.491-11.89-11.895-20.811-23.784-20.811
	c-5.204,0-10.407,0-15.607,0c-2.232,0-3.717,0.745-2.977,2.976c0,0.742,0,1.483,0,2.973c0,2.227-0.74,2.972-2.973,2.227
	C17.311-57.001,3.935-61.46-8.701-65.919c-1.486,0-2.231-1.486-2.231-2.976c0-8.172,0-16.349,0-24.525
	c0-2.973,1.487-2.228,3.717-2.228C2.449-96.393,12.853-96.393,25.488-96.393z"/>
<path fill="#EB5B27" d="M29.205,129.549c-12.635,0-24.529,0-37.165,0c-2.972,0-3.714-0.744-3.714-3.71c0-8.18,0-17.098,0-25.271
	c0-2.235,0.742-2.979,2.973-3.725c12.635-1.482,25.271-2.966,37.161-4.455c1.485,0,2.972-0.744,2.972,1.489
	c0,1.483,1.486,1.483,2.231,1.483c5.946,0,11.891,0,17.84,0c5.943,0,11.89-2.228,16.35-6.69c2.23-1.481,4.458-2.228,6.689-2.971
	c14.121-1.492,28.987-3.712,43.108-5.201c4.459-0.744,4.459,0,3.714,3.709c-5.2,24.533-23.038,39.396-48.31,44.597
	c-3.717,0.744-7.431,0.744-11.147,0.744H29.205z"/>
</svg>
