<?xml version="1.0" encoding="utf-8"?>
<!-- Generator: Adobe Illustrator 23.1.1, SVG Export Plug-In . SVG Version: 6.00 Build 0)  -->
<svg version="1.1" id="Layer_1" xmlns="http://www.w3.org/2000/svg" xmlns:xlink="http://www.w3.org/1999/xlink" x="0px" y="0px"
	 viewBox="0 0 512 512" style="enable-background:new 0 0 512 512;" xml:space="preserve">
<style type="text/css">
	.st0{fill:#EB5B27;}
</style>
<path class="st0" d="M330.6,249.8c36.6,19,48.8,52.8,50.1,90.8c0,4.1-1.3,5.4-5.4,5.4c-23,2.7-47.4,4.1-70.5,6.8
	c-5.4,0-5.4-1.4-5.4-5.4c1.4-10.8,0-23-2.7-33.9c-5.4-21.7-24.4-35.2-46.1-35.2c-9.5,0-19,0-28.5,0c-5.4,0-6.8,1.4-6.8,6.8
	c0,23,0,46.1,0,69.1c0,5.4-1.4,8.1-6.8,8.1c-21.7,1.4-42,4.1-63.7,6.8c-6.8,1.4-8.1,0-8.1-6.8c0-62.3,0-126,0-188.3
	c0-8.1,0-8.1,8.1-6.8c21.7,5.4,43.4,10.8,66.4,16.3c4.1,0,5.4,2.7,5.4,6.8c0,0,0,0,0,1.4c0,6.8,0,14.9,0,21.7c0,2.7,0,5.4,4.1,5.4
	c12.2,0,25.7,0,37.9-1.4c8.1-1.4,16.3-5.4,21.7-10.8c2.7-2.7,5.4-4.1,9.5-2.7c20.3,5.4,40.7,10.8,61,14.9c5.4,1.4,5.4,4.1,1.4,6.8
	c-6.8,6.8-13.5,13.5-21.7,17.6C325.2,247.1,327.9,248.4,330.6,249.8z"/>
<path class="st0" d="M203.2,50.6c21.7,0,43.4,0,65,1.4c25.7,2.7,48.8,12.2,69.1,28.5c17.6,14.9,28.5,35.2,32.5,56.9
	c2.7,13.5,2.7,27.1,2.7,40.7c0,5.4-1.4,8.1-8.1,5.4c-21.7-8.1-43.4-14.9-63.7-21.7c-4.1-1.4-6.8-4.1-6.8-8.1
	c-2.7-21.7-21.7-37.9-43.4-37.9c-9.5,0-19,0-28.5,0c-4.1,0-6.8,1.4-5.4,5.4c0,1.4,0,2.7,0,5.4c0,4.1-1.3,5.4-5.4,4.1
	c-23-8.1-47.4-16.3-70.5-24.4c-2.7,0-4.1-2.7-4.1-5.4c0-14.9,0-29.8,0-44.7c0-5.4,2.7-4.1,6.8-4.1C161.2,50.6,180.2,50.6,203.2,50.6
	z"/>
<path class="st0" d="M210,462.5c-23,0-44.7,0-67.8,0c-5.4,0-6.8-1.4-6.8-6.8c0-14.9,0-31.2,0-46.1c0-4.1,1.4-5.4,5.4-6.8
	c23-2.7,46.1-5.4,67.7-8.1c2.7,0,5.4-1.4,5.4,2.7c0,2.7,2.7,2.7,4.1,2.7c10.8,0,21.7,0,32.5,0c10.8,0,21.7-4.1,29.8-12.2
	c4.1-2.7,8.1-4.1,12.2-5.4c25.7-2.7,52.8-6.8,78.6-9.5c8.1-1.4,8.1,0,6.8,6.8c-9.5,44.7-42,71.8-88.1,81.3
	c-6.8,1.4-13.5,1.4-20.3,1.4L210,462.5L210,462.5z"/>
</svg>
