<svg xmlns="http://www.w3.org/2000/svg" width="107" height="32" viewBox="0 0 107.1 32.2"><style>.a{fill:#EB5B27;}.b{fill:#FFF;}</style><path d="M82.4 21.2c0.5-2.2 1-4.4 1.4-6.6 0.3-1.2 0.6-2.5 0.8-3.8 0-0.3 0.2-0.5 0.5-0.5 2.7-0.6 5.4-1.2 8.1-1.7 0.4-0.1 0.5 0 0.5 0.4 0 5.3 0 10.5 0 15.8 0 0.4-0.1 0.5-0.5 0.4 -1.4-0.2-2.7-0.4-4.1-0.6 -0.4 0-0.5-0.2-0.5-0.6 0-3.5 0-7 0-10.5 0-0.3 0-0.6-0.1-0.9 -0.2 1-0.5 2.1-0.8 3.1 -0.6 2.6-1.3 5.3-1.9 7.9 -0.1 0.4-0.2 0.5-0.6 0.4 -2.1-0.3-4.2-0.6-6.3-0.9 -0.3 0-0.5-0.2-0.5-0.4 -0.9-3.3-1.8-6.6-2.7-9.9 -0.1-0.4-0.1-0.5 0.3-0.6 1.2-0.2 2.4-0.5 3.5-0.7 0.4-0.1 0.5 0 0.5 0.4 0.7 3 1.4 6 2 9 0 0.1 0.1 0.2 0.1 0.3C82.3 21.2 82.4 21.2 82.4 21.2z" class="a"/><path d="M14.4 14.7c2.7 1.4 3.6 3.9 3.7 6.7 0 0.3-0.1 0.4-0.4 0.4 -1.7 0.2-3.5 0.3-5.2 0.5 -0.4 0-0.4-0.1-0.4-0.4 0.1-0.8 0-1.7-0.2-2.5 -0.4-1.6-1.8-2.6-3.4-2.6 -0.7 0-1.4 0-2.1 0 -0.4 0-0.5 0.1-0.5 0.5 0 1.7 0 3.4 0 5.1 0 0.4-0.1 0.6-0.5 0.6 -1.6 0.1-3.1 0.3-4.7 0.5 -0.5 0.1-0.6 0-0.6-0.5 0-4.6 0-9.3 0-13.9 0-0.6 0-0.6 0.6-0.5 1.6 0.4 3.2 0.8 4.9 1.2 0.3 0 0.4 0.2 0.4 0.5 0 0 0 0 0 0.1 0 0.5 0 1.1 0 1.6 0 0.2 0 0.4 0.3 0.4 0.9 0 1.9 0 2.8-0.1 0.6-0.1 1.2-0.4 1.6-0.8 0.2-0.2 0.4-0.3 0.7-0.2 1.5 0.4 3 0.8 4.5 1.1 0.4 0.1 0.4 0.3 0.1 0.5 -0.5 0.5-1 1-1.6 1.3C14 14.5 14.2 14.6 14.4 14.7z" class="a"/><path d="M5 0c1.6 0 3.2 0 4.8 0.1 1.9 0.2 3.6 0.9 5.1 2.1 1.3 1.1 2.1 2.6 2.4 4.2 0.2 1 0.2 2 0.2 3 0 0.4-0.1 0.6-0.6 0.4 -1.6-0.6-3.2-1.1-4.7-1.6 -0.3-0.1-0.5-0.3-0.5-0.6 -0.2-1.6-1.6-2.8-3.2-2.8 -0.7 0-1.4 0-2.1 0 -0.3 0-0.5 0.1-0.4 0.4 0 0.1 0 0.2 0 0.4 0 0.3-0.1 0.4-0.4 0.3 -1.7-0.6-3.5-1.2-5.2-1.8 -0.2 0-0.3-0.2-0.3-0.4 0-1.1 0-2.2 0-3.3 0-0.4 0.2-0.3 0.5-0.3C1.9 0 3.3 0 5 0z" class="a"/><path d="M5.5 30.4c-1.7 0-3.3 0-5 0 -0.4 0-0.5-0.1-0.5-0.5 0-1.1 0-2.3 0-3.4 0-0.3 0.1-0.4 0.4-0.5 1.7-0.2 3.4-0.4 5-0.6 0.2 0 0.4-0.1 0.4 0.2 0 0.2 0.2 0.2 0.3 0.2 0.8 0 1.6 0 2.4 0 0.8 0 1.6-0.3 2.2-0.9 0.3-0.2 0.6-0.3 0.9-0.4 1.9-0.2 3.9-0.5 5.8-0.7 0.6-0.1 0.6 0 0.5 0.5 -0.7 3.3-3.1 5.3-6.5 6 -0.5 0.1-1 0.1-1.5 0.1L5.5 30.4z" class="a"/><path d="M42.5 16c-0.8-0.7-1.5-1.3-2.2-1.9 -1.1-1-2.3-2-3.5-3 -0.2-0.2-0.4-0.5-0.3-0.7 0-0.4 0-0.8 0-1.2 0.1-1-0.5-1.9-1.5-2.2 -0.9-0.4-1.9-0.6-2.9-0.4 -0.3 0.1-0.6 0-0.8-0.2 -1-0.9-2.1-1.7-3.1-2.6 -0.5-0.4-0.4-0.4 0.1-0.6 1.9-0.6 3.9-0.8 5.9-0.6 2 0.1 4 0.8 5.7 2 1.2 0.8 2.1 2 2.4 3.4 0 0.2 0.1 0.4 0.1 0.6C42.5 11.1 42.5 13.5 42.5 16z" class="a"/><path d="M53.6 7.1c-0.1 0-0.2 0.1-0.3 0.2 -1.1 0.8-1.1 1.9-1 3 0 0.4-0.1 0.7-0.4 1 -1.5 1.3-2.9 2.5-4.4 3.8 -0.2 0.1-0.3 0.2-0.5 0.4l0 0c-0.2 0.2-0.2 0.4-0.5 0.5 -0.1 0-0.1 0-0.2-0.1 0-0.3 0-0.6 0-0.9 0-2.1 0-4.2 0-6.3 0-1.3 0.6-2.6 1.7-3.5 1.4-1.3 3.1-2.1 5-2.5 1.5-0.3 3-0.4 4.5-0.2 0.2 0 0.3 0 0.5 0.1 1 0.1 1.9 0.2 2.8 0.5 0.1 0 0.2 0.1 0.2 0.2v0.2c-0.8 0.8-1.6 1.5-2.5 2.1 0 0-0.1 0.1-0.1 0.1 -0.2 0.3-0.4 0.5-0.7 0.7 -0.2 0.2-0.5 0.3-0.7 0.2C55.6 6.6 54.6 6.7 53.6 7.1z" class="a"/><path d="M70.5 5.7c0-1.4 0-2.8 0-4.2 0-0.4 0.1-0.5 0.5-0.5 2.1 0 4.2 0 6.3 0 0.2 0 0.5 0.1 0.5 0.4 0 0 0 0 0 0 0.4 2 0.9 4 1.4 6 0.1 0.3-0.1 0.4-0.3 0.5 -2.6 0.8-5.2 1.5-7.9 2.3 -0.4 0.1-0.5 0-0.5-0.4C70.5 8.5 70.5 7.1 70.5 5.7L70.5 5.7z" class="a"/><path d="M75.6 17.7c0 1.5 0 3.1 0 4.6 0 0.3-0.1 0.5-0.5 0.4 -1.4-0.2-2.7-0.4-4.1-0.6 -0.4 0-0.5-0.2-0.5-0.6 0-2.5 0-5 0-7.5 0-0.4 0.1-0.5 0.5-0.6 1.4-0.3 2.7-0.6 4.1-0.9 0.4-0.1 0.5 0 0.5 0.4 0 1.6 0 3.1 0 4.7L75.6 17.7z" class="a"/><path d="M29.5 11.2c0 0.8 0 1.6 0 2.3 0 0.3-0.1 0.4-0.4 0.3 -1.9-0.5-3.9-1.1-5.8-1.6 -0.2 0-0.3-0.1-0.3-0.3 -0.1-1.4 0-2.8 0.2-4.2 0.2-0.9 0.7-1.7 1.4-2.3 0.1-0.2 0.4-0.2 0.5-0.1 0 0 0 0 0 0 1.4 1 2.8 2 4.2 3 0.2 0.1 0.2 0.3 0.2 0.5 0 0.8 0 1.6 0 2.4L29.5 11.2z" class="a"/><path d="M59.2 11.1c0-0.8 0-1.6 0-2.3 0-0.2 0.1-0.4 0.2-0.5 1.4-1 2.8-1.9 4.1-2.9 0.1-0.1 0.3-0.1 0.5 0 0 0 0 0 0 0.1 0.9 0.9 1.5 2 1.5 3.3 0 1 0 2 0 3 0 0.2-0.1 0.4-0.3 0.5 0 0 0 0 0 0 -1.9 0.5-3.8 1-5.6 1.6 -0.3 0.1-0.5 0-0.4-0.3 0-0.8 0-1.6 0-2.4L59.2 11.1z" class="a"/><path d="M59.5 29.5c-0.7 0.2-1.3 0.4-2 0.4 -2.7 0.3-5.4-0.2-7.8-1.4 -1.2-0.6-2.2-1.6-2.9-2.8 -0.4-0.9-0.6-1.8-0.5-2.7 0-0.5 0.3-0.2 0.5-0.1 1.2 0.6 2.5 1.3 3.7 1.9 2.9 1.5 5.8 3 8.7 4.5C59.2 29.3 59.3 29.4 59.5 29.5z" class="a"/><path d="M41.7 23c-0.5 0.1-1 0.4-1.4 0.7l0 0c-0.9 0.4-1.8 0.9-2.6 1.4h0c-0.2 0.2-0.5 0-0.7 0.3h0c-0.4 0.1-0.8 0.3-1.2 0.6 -1.2 0.6-2.4 1.2-3.6 1.9 0 0-0.1 0.1-0.1 0.1 -0.5 0.3-1 0.5-1.5 0.8 -0.1 0-0.1 0.1-0.2 0.1 0 0.1-0.1 0.1-0.1 0.2 -0.1 0.1-0.3 0.2-0.4 0.2 -0.1 0.1-0.2 0.1-0.3 0.2l0 0c0 0 0 0-0.1 0 0 0 0 0 0 0 0 0.3 0 0.3 0.2 0.3 0.3 0.1 0.7 0 1 0.1l0.4 0c0.4 0.1 0.8 0.1 1.2 0.1 0.1 0 0.2 0 0.3 0 0.3 0.1 0.5 0.1 0.8 0 0.2 0 0.3 0 0.5 0 0.1 0 0.3 0 0.4 0l0.4 0c0 0 0.1 0 0.1 0 0.1 0 0.1 0 0.2 0 0.2 0 0.3 0 0.5-0.1 1-0.1 1.9-0.4 2.8-0.8 0.6-0.3 1.2-0.6 1.8-1 1.6-0.9 2.5-2.6 2.6-4.5C42.5 22.6 42.5 22.6 41.7 23z" class="a"/><path d="M32 25.8c-1.1 0.6-2.2 1.1-3.3 1.6 -0.6 0.3-1.2 0.6-1.8 0.9 -0.2 0.1-0.3 0.2-0.5 0.1 -1.7-1-3.1-2.3-3.3-4.5 -0.1-1-0.1-1 0.9-1.1 1.7-0.2 3.3-0.5 5-0.7 0.4-0.1 0.6 0 0.5 0.5 -0.2 1.7 0.4 2.5 2.3 3.1C31.8 25.7 31.9 25.7 32 25.8z" class="a"/><path d="M23.1 18c0-0.9 0-1.9 0-2.8 0-0.4 0.1-0.4 0.4-0.4 1.9 0.4 3.8 0.8 5.6 1.2 0.3 0.1 0.4 0.2 0.4 0.5 0 1.1 0 2.3 0 3.4 0 0.3-0.1 0.4-0.4 0.4 -1.9 0.3-3.8 0.5-5.7 0.8 -0.3 0-0.4-0.1-0.4-0.4v-2.8L23.1 18z" class="a"/><path d="M56.7 25.7c0.4-0.2 0.8-0.3 1.1-0.5 0.9-0.4 1.5-1.3 1.4-2.2 -0.1-1 0-1 1-0.9 1.7 0.2 3.3 0.5 5 0.7 0.3 0 0.4 0.2 0.4 0.5 0 1.9-1 3.6-2.5 4.6 -0.5 0.5-1.2 0.5-1.8 0.1C59.9 27.2 58.3 26.5 56.7 25.7z" class="a"/><path d="M65.7 18.1c0 0.9 0 1.8 0 2.7 0 0.3-0.1 0.4-0.4 0.4 -1.9-0.3-3.7-0.5-5.6-0.8 -0.3 0-0.4-0.2-0.4-0.5 0-1.1 0-2.3 0-3.4 0-0.2 0.1-0.4 0.3-0.5 0 0 0 0 0.1 0 1.9-0.4 3.7-0.8 5.6-1.2 0.4-0.1 0.5 0.1 0.5 0.4 0 0.9 0 1.9 0 2.8H65.7z" class="a"/><path d="M90.2 1.1c1 0 2 0 3 0 0.3 0 0.4 0 0.4 0.4 0 0.6 0 1.2 0 1.8 0 0.2-0.1 0.4-0.3 0.4 0 0 0 0 0 0 -2.4 0.7-4.8 1.4-7.2 2.1 -0.4 0.1-0.4 0-0.3-0.3 0.3-1.3 0.6-2.7 0.9-4 0.1-0.4 0.3-0.4 0.6-0.4L90.2 1.1z" class="a"/><path d="M70.6 29.6c-0.2-0.1 0-4.1-0.1-5.5 0-0.2 0.1-0.2 0.3-0.2l4.5 0.7c0.2 0 0.3 0.1 0.3 0.3 0 1.5 0 3 0 4.6 0 0.3-0.1 0.4-0.4 0.4C74.8 29.7 70.8 29.7 70.6 29.6z" class="a"/><path d="M80.2 29c-0.2-0.4-0.3-0.8-0.4-1.2 -0.2-0.7-0.4-1.5-0.6-2.2 -0.1-0.4 0-0.5 0.4-0.5 1.6 0.3 3.2 0.5 4.9 0.8 0.8 0.1 0.8 0.1 0.6 1 -0.2 0.9-0.4 1.7-0.7 2.5C84.2 29.9 80.5 30.1 80.2 29z" class="a"/><path d="M52.2 22.2v0.8c0 0.5 0 0.6-0.5 0.3 -1.4-0.7-2.7-1.3-4-2 -0.4-0.2-0.9-0.4-1.3-0.6 -0.2-0.1-0.3-0.2-0.2-0.4 0 0 0 0 0 0 0.1-0.2 0.3-0.1 0.4-0.1 1.7 0.3 3.5 0.5 5.2 0.8 0.4 0 0.5 0.2 0.4 0.5 0 0.3 0 0.5 0 0.8V22.2z" class="a"/><path d="M88.7 29.7c-0.1-0.9-0.1-1.8 0-2.8 0-0.3 0.1-0.4 0.4-0.3 1.4 0.2 2.8 0.4 4.3 0.6 0.3 0 0.5 0.1 0.5 0.5 0 0.6 0.1 1.8-0.2 2C91.9 29.8 90.3 29.8 88.7 29.7z" class="a"/><path d="M52.2 13.4v2.3c0 0.2-0.1 0.3-0.2 0.4 -0.1 0-0.2 0-0.2 0.1 -1.8 0.5-3.5 1-5.3 1.5 0 0 0-0.1-0.1-0.1C48.3 16.1 50.2 14.8 52.2 13.4z" class="a"/><path d="M40.2 16c0.1 0 0.1 0.1 0.2 0.1l0 0c0 0 0.1 0.1 0.1 0.1 0.1 0 0.2 0.1 0.2 0.1 0.1 0 0.1 0.1 0.2 0.1l0 0c0.1 0 0.1 0.1 0.2 0.1 0 0 0.1 0 0.1 0.1l0 0c0 0.1 0.1 0 0.2 0.1 0.1 0.1 0.2 0.1 0.3 0.2l0 0 0 0c0.1 0 0.1 0.1 0.2 0.1 0.1 0 0.2 0.1 0.2 0.2 0 0.1-0.1 0.2-0.3 0.2 0 0 0 0 0 0 -0.4 0-0.7-0.1-1.1-0.3 -1.2-0.3-2.5-0.7-3.7-1 -0.2-0.1-0.3-0.1-0.3-0.4v-2.3c0.9 0.7 1.8 1.3 2.6 1.8 0.2 0.1 0.3 0.2 0.5 0.3 0 0 0.1 0.1 0.1 0.1l0 0c0 0 0 0 0.1 0C39.9 15.7 40 15.8 40.2 16z" class="a"/><path d="M47.2 18.7c1.2-0.3 2.5-0.5 3.7-0.8 1.5-0.3 1.5-0.3 1.4 1.2 0 0.3-0.1 0.3-0.4 0.3 -1.6-0.2-3.1-0.4-4.7-0.6L47.2 18.7z" class="a"/><path d="M41.6 18.8l-4.7 0.6c-0.3 0-0.4-0.1-0.4-0.4 0-0.4 0-0.7 0-1.1 0-0.2 0.1-0.3 0.3-0.2 1.6 0.3 3.2 0.7 4.8 1C41.6 18.7 41.6 18.7 41.6 18.8z" class="a"/><path d="M41.2 16.7c-0.1 0-0.1 0-0.2-0.1C41.1 16.6 41.1 16.6 41.2 16.7z" class="a"/><path d="M41 16.6c0 0-0.1-0.1-0.1-0.1C41 16.4 41 16.5 41 16.6z" class="a"/><path d="M41.5 16.9l0 0 0 0L41.5 16.9z" class="a"/><path d="M40.3 16l0 0L40.3 16z" class="a"/><path d="M39.7 15.6L39.7 15.6 39.7 15.6z" class="a"/><path d="M40.7 16.4l0 0 0 0V16.4z" class="a"/><path d="M34.6 29.9c0 0 0.1 0 0.1 0C34.7 29.9 34.6 29.9 34.6 29.9z" class="a"/><path d="M36.9 23c-0.2 0-0.3-0.1-0.3-0.2 0-0.5 0.1-1 0.1-1.4 0-0.2 0.1-0.2 0.3-0.3 0.8-0.1 1.6-0.3 2.4-0.4 0.8-0.1 1.6-0.3 2.5-0.4 0.1 0 0.3-0.1 0.3 0 0 0.1-0.1 0.2-0.2 0.2 -1.4 0.6-2.7 1.3-4.1 2C37.6 22.7 37.3 23 36.9 23z" class="a"/><path d="M70.7 32.2v-8.6h3.8c0.8 0 1.3 0.1 1.7 0.2s0.7 0.4 1 0.8 0.4 0.8 0.4 1.3c0 0.6-0.2 1.1-0.6 1.5s-1 0.7-1.8 0.8c0.3 0.1 0.5 0.3 0.7 0.4 0.3 0.3 0.6 0.7 0.9 1.1l1.5 2.3h-1.4l-1.1-1.8c-0.3-0.5-0.6-0.9-0.8-1.2s-0.4-0.5-0.6-0.6 -0.3-0.2-0.5-0.2c-0.1 0-0.3 0-0.6 0h-1.3v3.8H70.7zM71.8 27.4h2.4c0.5 0 0.9-0.1 1.2-0.2s0.5-0.3 0.7-0.5 0.2-0.5 0.2-0.8c0-0.4-0.1-0.7-0.4-1s-0.8-0.4-1.4-0.4h-2.7V27.4z" class="b"/><path d="M78.4 32.2l3.3-8.6h1.2l3.5 8.6h-1.3l-1-2.6h-3.6l-0.9 2.6H78.4zM80.9 28.6h2.9l-0.9-2.4c-0.3-0.7-0.5-1.3-0.6-1.8 -0.1 0.6-0.3 1.1-0.5 1.6L80.9 28.6z" class="b"/><path d="M87.3 32.2v-8.6h3c0.7 0 1.2 0 1.5 0.1 0.5 0.1 0.9 0.3 1.3 0.6 0.5 0.4 0.8 0.9 1 1.5s0.3 1.3 0.3 2c0 0.7-0.1 1.2-0.2 1.7s-0.3 0.9-0.6 1.3 -0.5 0.6-0.8 0.8 -0.6 0.3-1 0.4 -0.9 0.1-1.4 0.1H87.3zM88.5 31.2h1.8c0.6 0 1-0.1 1.3-0.2s0.6-0.3 0.8-0.4c0.3-0.3 0.5-0.6 0.6-1.1s0.2-1 0.2-1.7c0-0.9-0.1-1.6-0.4-2.1s-0.7-0.8-1.1-1c-0.3-0.1-0.8-0.2-1.5-0.2h-1.8V31.2z" class="b"/><path d="M96.2 32.2v-8.6h1.1v8.6H96.2z" class="b"/><path d="M99 28c0-1.4 0.4-2.5 1.1-3.3s1.8-1.2 3-1.2c0.8 0 1.5 0.2 2.1 0.6s1.1 0.9 1.5 1.6 0.5 1.4 0.5 2.3c0 0.9-0.2 1.7-0.5 2.3s-0.8 1.2-1.5 1.6 -1.3 0.5-2.1 0.5c-0.8 0-1.5-0.2-2.2-0.6s-1.1-0.9-1.4-1.6S99 28.7 99 28zM100.1 28c0 1 0.3 1.9 0.8 2.4s1.3 0.9 2.1 0.9c0.9 0 1.6-0.3 2.1-0.9s0.8-1.5 0.8-2.6c0-0.7-0.1-1.3-0.4-1.8s-0.6-0.9-1-1.2 -1-0.4-1.5-0.4c-0.8 0-1.5 0.3-2.1 0.8S100.1 26.7 100.1 28z" class="b"/></svg>
