<?xml version="1.0" encoding="UTF-8"?>
<svg enable-background="new 0 0 25 25" version="1.1" viewBox="0 0 25 25" xml:space="preserve" xmlns="http://www.w3.org/2000/svg">
<style type="text/css">
	.st0{fill:none;}
	.st1{fill:#EB5B27;}
	.st2{fill:none;stroke:#EB5B27;stroke-width:1.6077;stroke-linecap:round;stroke-miterlimit:3.2154;}
</style>
<g transform="translate(-37 -615.45)">
	<g transform="translate(37 615.45)">
		<path class="st0" d="m10.4 0.3c5.6 0 10.1 4.5 10.1 10.1s-4.5 10.1-10.1 10.1-10.1-4.5-10.1-10.1 4.5-10.1 10.1-10.1z"/>
		<path class="st1" d="m10.4 1.6c-2.4 0-4.6 0.9-6.2 2.6-1.7 1.6-2.6 3.8-2.6 6.2s0.9 4.6 2.6 6.2c1.7 1.7 3.9 2.6 6.2 2.6s4.6-0.9 6.2-2.6c1.7-1.7 2.6-3.9 2.6-6.2s-0.9-4.6-2.6-6.2c-1.7-1.7-3.9-2.6-6.2-2.6m0-1.3c5.6 0 10.1 4.5 10.1 10.1s-4.5 10.1-10.1 10.1-10.1-4.5-10.1-10.1 4.5-10.1 10.1-10.1z"/>
	</g>
	<line class="st2" x1="43.1" x2="52.2" y1="626.1" y2="626.1"/>
	<line class="st2" x1="47.7" x2="47.7" y1="621.6" y2="630.7"/>
	<line class="st2" x1="54.3" x2="60.7" y1="632.7" y2="639.1"/>
</g>
</svg>
