<svg xmlns="http://www.w3.org/2000/svg" width="19.664" height="19.664" viewBox="0 0 19.664 19.664"><defs><style>.a,.b{fill:none;}.b{stroke:#eb5b27;stroke-linecap:round;stroke-width:2px;}.c,.d{stroke:none;}.d{fill:#eb5b27;}</style></defs><g transform="translate(-1537 -193)"><g class="a" transform="translate(1537 193)"><path class="c" d="M7.894,0A7.894,7.894,0,1,1,0,7.894,7.894,7.894,0,0,1,7.894,0Z"/><path class="d" d="M 7.893998622894287 2.000003814697266 C 4.644038200378418 2.000003814697266 1.999999046325684 4.644043922424316 1.999999046325684 7.89401388168335 C 1.999999046325684 11.14398384094238 4.644038200378418 13.78802394866943 7.893998622894287 13.78802394866943 C 11.14395904541016 13.78802394866943 13.78799819946289 11.14398384094238 13.78799819946289 7.89401388168335 C 13.78799819946289 4.644043922424316 11.14395904541016 2.000003814697266 7.893998622894287 2.000003814697266 M 7.893998622894287 3.814697265625e-06 C 12.25372886657715 3.814697265625e-06 15.78799819946289 3.534274101257324 15.78799819946289 7.89401388168335 C 15.78799819946289 12.25375366210938 12.25372886657715 15.78802394866943 7.893998622894287 15.78802394866943 C 3.534268379211426 15.78802394866943 -9.5367431640625e-07 12.25375366210938 -9.5367431640625e-07 7.89401388168335 C -9.5367431640625e-07 3.534274101257324 3.534268379211426 3.814697265625e-06 7.893998622894287 3.814697265625e-06 Z"/></g><line class="b" x2="7.107" transform="translate(1550.224 206.224) rotate(45)"/></g></svg>