<svg xmlns="http://www.w3.org/2000/svg" xmlns:xlink="http://www.w3.org/1999/xlink" width="96.724" height="44.246" viewBox="0 0 96.724 44.246"><defs><style>.a{fill:url(#a);}.b{fill:#fff;font-size:20px;font-family:FjallaOne-Regular, Fjalla One;}</style><linearGradient id="a" x1="0.084" x2="1" y2="1" gradientUnits="objectBoundingBox"><stop offset="0" stop-color="#3fc5be"/><stop offset="1" stop-color="#3aa9e1"/></linearGradient></defs><g transform="translate(-1567.802 53.353)"><path class="a" d="M89.522,44.246H7.2a7.211,7.211,0,0,1-7.2-7.2V7.2A7.211,7.211,0,0,1,7.2,0H89.522a7.211,7.211,0,0,1,7.2,7.2v29.84A7.211,7.211,0,0,1,89.522,44.246ZM9.451,2.675A6.591,6.591,0,0,0,2.641,9.007V35.239a6.591,6.591,0,0,0,6.809,6.332H87.274a6.591,6.591,0,0,0,6.81-6.332V9.007a6.591,6.591,0,0,0-6.81-6.332Z" transform="translate(1567.802 -53.353)"/><text class="b" transform="translate(1613.966 -25.996)"><tspan x="-9.751" y="0">Go</tspan></text></g></svg>