<svg xmlns="http://www.w3.org/2000/svg" width="93.698" height="34.175" viewBox="0 0 93.698 34.175"><defs><style>.a{fill:#fff;}.b{fill:#ec5b27;font-size:7px;font-family:Quicksand-Medium, Quicksand;font-weight:500;}</style></defs><g transform="translate(-16.004 -13.913)"><path class="a" d="M874.554,262.034q.716-3.29,1.421-6.581c.273-1.25.557-2.512.807-3.762a.592.592,0,0,1,.511-.523q4.04-.852,8.069-1.75c.364-.08.466,0,.466.375q-.017,7.893,0,15.775c0,.4-.114.477-.489.421-1.352-.2-2.7-.386-4.069-.557-.4-.045-.5-.216-.5-.625.023-3.5.011-7,.023-10.5a2.722,2.722,0,0,0-.114-.943c-.25,1.046-.5,2.091-.762,3.137-.636,2.648-1.284,5.285-1.9,7.933-.091.375-.182.511-.625.443-2.091-.318-4.182-.591-6.274-.864a.524.524,0,0,1-.523-.432q-1.313-4.944-2.66-9.888c-.1-.364-.057-.523.33-.6,1.171-.239,2.353-.477,3.512-.75.352-.08.466.011.546.352.671,3.012,1.352,6.035,2.034,9.047.023.091.068.182.091.284A.352.352,0,0,0,874.554,262.034Z" transform="translate(-776.163 -226.876)"/><path class="a" d="M177.269,255.1c2.659,1.443,3.569,3.853,3.739,6.694.023.318-.1.4-.4.42-1.728.159-3.466.33-5.194.5-.352.034-.432-.068-.4-.409a6.436,6.436,0,0,0-.25-2.5,3.437,3.437,0,0,0-3.4-2.6c-.7-.023-1.421.011-2.125-.023-.4-.011-.523.114-.523.511.023,1.7-.011,3.41.011,5.114.011.432-.1.58-.546.614-1.568.125-3.125.284-4.683.466-.466.057-.648-.023-.636-.545.011-4.614,0-9.251,0-13.877,0-.6,0-.614.58-.466,1.625.409,3.239.83,4.864,1.216a.462.462,0,0,1,.421.557c-.011.546,0,1.08-.011,1.625,0,.193,0,.375.284.375a18.08,18.08,0,0,0,2.83-.091,2.963,2.963,0,0,0,1.6-.807.643.643,0,0,1,.682-.193c1.5.387,3.012.773,4.523,1.137.409.1.4.25.148.523a5.215,5.215,0,0,1-1.625,1.273C176.814,254.838,177.007,254.974,177.269,255.1Z" transform="translate(-146.853 -226.454)"/><path class="a" d="M167.743,169.313a47.092,47.092,0,0,1,4.83.114,9.951,9.951,0,0,1,5.1,2.057,6.976,6.976,0,0,1,2.375,4.182,12.447,12.447,0,0,1,.159,2.978c-.011.4-.1.58-.58.409-1.568-.568-3.16-1.1-4.739-1.637a.705.705,0,0,1-.523-.591,3.172,3.172,0,0,0-3.171-2.785c-.7-.045-1.421-.011-2.125-.034-.33-.011-.477.1-.443.432.011.114,0,.239.011.352.023.318-.068.432-.409.318-1.728-.6-3.455-1.182-5.183-1.773a.368.368,0,0,1-.284-.409c.011-1.1.011-2.193,0-3.3-.011-.386.239-.33.477-.33C164.663,169.313,166.083,169.313,167.743,169.313Z" transform="translate(-146.76 -155.386)"/><path class="a" d="M168.3,396.981c-1.671,0-3.341-.011-5.023.011-.409,0-.523-.125-.511-.512.023-1.137.023-2.262,0-3.4-.011-.33.1-.432.421-.477,1.671-.2,3.353-.432,5.023-.648.193-.023.421-.1.421.239,0,.2.171.216.33.216.8-.011,1.591.011,2.387-.034a3.34,3.34,0,0,0,2.159-.886,1.543,1.543,0,0,1,.921-.352c1.921-.25,3.853-.512,5.774-.75.568-.068.591-.046.466.511-.727,3.3-3.114,5.251-6.5,5.955a6.975,6.975,0,0,1-1.466.125Z" transform="translate(-146.757 -352.708)"/><path class="a" d="M437.648,206.531c-.818-.693-1.534-1.3-2.239-1.9-1.148-.989-2.3-1.989-3.455-2.978a.819.819,0,0,1-.33-.739c.023-.386-.011-.773.011-1.159a2.2,2.2,0,0,0-1.455-2.216,4.787,4.787,0,0,0-2.921-.375.859.859,0,0,1-.784-.216c-1.023-.887-2.057-1.75-3.08-2.637-.455-.386-.443-.443.136-.636a14.638,14.638,0,0,1,5.91-.557,11.244,11.244,0,0,1,5.66,2.012,5.433,5.433,0,0,1,2.444,3.41,3.5,3.5,0,0,1,.08.6C437.648,201.553,437.648,203.962,437.648,206.531Z" transform="translate(-379.114 -176.579)"/><path class="a" d="M599.834,197a.442.442,0,0,0-.307.193c-1.057.773-1.068,1.909-1,3.046a1.084,1.084,0,0,1-.409.966c-1.466,1.262-2.944,2.512-4.41,3.785a4.8,4.8,0,0,1-.534.352l-.011.011c-.17.159-.239.432-.534.455-.08,0-.148.011-.193-.068a3.053,3.053,0,0,1,0-.852c-.034-2.091-.011-4.182-.023-6.274a4.626,4.626,0,0,1,1.659-3.455,10.062,10.062,0,0,1,4.955-2.478,14.02,14.02,0,0,1,4.467-.216c.17.023.329.034.5.057a10.4,10.4,0,0,1,2.807.546.351.351,0,0,1,.227.193v.182a15.66,15.66,0,0,1-2.512,2.148c-.034.034-.08.068-.114.1a3.559,3.559,0,0,1-.716.716.961.961,0,0,1-.739.216A6.337,6.337,0,0,0,599.834,197Z" transform="translate(-530.253 -175.985)"/><path class="a" d="M819.448,184.113c0-1.387.011-2.773-.011-4.16,0-.352.091-.466.455-.466,2.114.011,4.216.011,6.33,0a.442.442,0,0,1,.512.409c.443,1.989.886,3.989,1.353,5.967.08.318-.057.4-.33.477q-3.938,1.142-7.865,2.33c-.409.125-.455-.023-.455-.364.011-1.387,0-2.785.011-4.194Z" transform="translate(-732.911 -164.48)"/><path class="a" d="M824.376,290.98c0,1.534-.011,3.069,0,4.614,0,.341-.068.477-.454.421-1.353-.2-2.705-.386-4.057-.568-.386-.045-.534-.182-.534-.6q.034-3.75,0-7.5c0-.386.125-.523.489-.6,1.352-.273,2.716-.557,4.057-.875.409-.1.5.011.5.4-.011,1.58,0,3.148,0,4.717Z" transform="translate(-732.815 -259.403)"/><path class="a" d="M383.848,224.6c0,.773-.011,1.557,0,2.33.011.318-.091.375-.387.284q-2.9-.818-5.8-1.625c-.159-.045-.273-.1-.273-.3a21.564,21.564,0,0,1,.182-4.194,4.916,4.916,0,0,1,1.352-2.273.373.373,0,0,1,.568-.045c1.387.989,2.785,1.978,4.171,2.955.193.136.182.3.182.477q0,1.193,0,2.387Z" transform="translate(-338.328 -199.459)"/><path class="a" d="M714.141,224.454c0-.773.011-1.557-.011-2.33a.469.469,0,0,1,.239-.455c1.375-.978,2.762-1.943,4.126-2.921a.339.339,0,0,1,.523.045,4.7,4.7,0,0,1,1.534,3.307c.023,1.011,0,2.023.011,3.034a.39.39,0,0,1-.33.455c-1.887.511-3.773,1.046-5.649,1.58-.341.1-.454.023-.443-.341.023-.8.011-1.591.011-2.375Z" transform="translate(-638.912 -199.435)"/><path class="a" d="M606.16,386.981a7.457,7.457,0,0,1-2.046.386,13.065,13.065,0,0,1-7.8-1.443,7.04,7.04,0,0,1-2.887-2.762,5.235,5.235,0,0,1-.523-2.75c.023-.511.33-.193.477-.125,1.239.625,2.455,1.273,3.682,1.909q4.33,2.267,8.672,4.535A3.07,3.07,0,0,1,606.16,386.981Z" transform="translate(-530.704 -343.573)"/><path class="a" d="M448.762,380.875a3.942,3.942,0,0,0-1.409.716h0a16.346,16.346,0,0,0-2.648,1.4h-.011c-.2.159-.534.045-.659.341h-.011a6.584,6.584,0,0,0-1.182.557c-1.2.625-2.421,1.239-3.626,1.864a.409.409,0,0,1-.114.08,12.914,12.914,0,0,1-1.477.761c-.079.034-.148.057-.216.079a.646.646,0,0,1-.148.159,2.39,2.39,0,0,1-.443.239.985.985,0,0,1-.307.159l-.011.011a.042.042,0,0,1-.057.023c0,.25,0,.262.227.33.318.091.659.046.989.125l.364.034a4.358,4.358,0,0,0,1.216.091,2.765,2.765,0,0,1,.307.011,1.936,1.936,0,0,0,.807,0c.17,0,.341-.011.511-.011a1.318,1.318,0,0,0,.421-.034l.4-.034a.111.111,0,0,0,.1-.011c.068,0,.137-.011.2-.011.171-.011.33-.034.5-.057a6.92,6.92,0,0,0,2.75-.841,11.693,11.693,0,0,0,1.8-1.034,5.267,5.267,0,0,0,2.569-4.455C449.569,380.477,449.58,380.477,448.762,380.875Z" transform="translate(-391.047 -344.012)"/><path class="a" d="M386.092,378.086c-1.148.568-2.216,1.1-3.285,1.637-.6.3-1.2.6-1.819.9-.171.08-.318.193-.523.068-1.728-1.023-3.08-2.319-3.284-4.455-.091-.989-.091-1,.875-1.137,1.671-.239,3.341-.466,5.012-.727.42-.068.6.034.545.477-.2,1.728.42,2.546,2.25,3.114A.78.78,0,0,1,386.092,378.086Z" transform="translate(-338.117 -338.416)"/><path class="a" d="M377.489,310.782c0-.932.011-1.853,0-2.784-.011-.352.114-.443.443-.364q2.813.614,5.649,1.193c.3.057.375.2.375.477q-.017,1.722,0,3.444c0,.262-.057.387-.352.432-1.909.25-3.807.512-5.717.784-.341.045-.4-.114-.4-.4v-2.784Z" transform="translate(-338.424 -278.841)"/><path class="a" d="M691.172,378.505c.432-.171.784-.3,1.114-.455a2.2,2.2,0,0,0,1.387-2.25c-.057-1.046-.023-1.046,1.023-.9,1.659.239,3.307.489,4.967.7.33.045.409.17.421.477a5.356,5.356,0,0,1-2.546,4.58,1.424,1.424,0,0,1-1.807.136C694.286,379.983,692.763,379.289,691.172,378.505Z" transform="translate(-618.421 -338.847)"/><path class="a" d="M720.77,310.841c0,.909-.011,1.83,0,2.739,0,.3-.057.443-.4.4-1.875-.273-3.739-.534-5.614-.773-.33-.046-.409-.171-.409-.489.023-1.137.011-2.262,0-3.4a.408.408,0,0,1,.386-.477c1.864-.387,3.739-.784,5.6-1.193.4-.091.455.068.455.409-.023.92-.011,1.853-.023,2.784Z" transform="translate(-639.109 -278.854)"/><path class="a" d="M965.623,179.38c1.011,0,2.023.011,3.035,0,.284,0,.443.045.432.386-.023.6-.023,1.216-.011,1.818a.371.371,0,0,1-.318.421q-3.631,1.057-7.24,2.125c-.387.114-.4-.023-.33-.33.3-1.33.591-2.671.864-4.012.08-.4.318-.409.625-.409Z" transform="translate(-859.412 -164.385)"/><path class="a" d="M819.1,397.033c-.211-.148-.034-4.142-.057-5.494,0-.2.114-.25.307-.227l4.455.682c.216.034.273.136.273.341,0,1.523,0,3.035.011,4.558,0,.284-.1.387-.4.352C823.334,397.2,819.306,397.182,819.1,397.033Z" transform="translate(-732.512 -353.552)"/><path class="a" d="M900.746,407.5a7.3,7.3,0,0,1-.4-1.182c-.227-.727-.375-1.466-.6-2.194-.136-.443-.011-.523.409-.454,1.614.261,3.239.5,4.853.75.818.125.83.136.614.978a19.384,19.384,0,0,1-.682,2.523C904.719,408.327,901.014,408.569,900.746,407.5Z" transform="translate(-804.548 -364.564)"/><path class="a" d="M599.022,358.522v.761c-.011.546-.023.557-.489.318-1.353-.67-2.694-1.33-4.035-2-.421-.2-.852-.421-1.273-.625a.34.34,0,0,1-.227-.443c.068-.216.262-.125.387-.1,1.739.25,3.478.511,5.217.75.352.045.455.2.432.523a6.561,6.561,0,0,0-.011.818Z" transform="translate(-530.771 -322.388)"/><path class="a" d="M987.649,420.265a17.609,17.609,0,0,1-.036-2.752c-.011-.273.057-.4.375-.341,1.409.227,2.83.432,4.251.636.318.046.477.148.455.5-.045.6.092,1.831-.176,1.956A44.136,44.136,0,0,1,987.649,420.265Z" transform="translate(-882.994 -376.628)"/><path class="a" d="M600.521,293.675v2.273c0,.193-.057.33-.25.375-.08.023-.159.034-.25.057-1.762.5-3.535,1-5.3,1.5-.023-.034-.046-.079-.068-.114C596.577,296.425,598.486,295.1,600.521,293.675Z" transform="translate(-532.27 -266.405)"/><path class="a" d="M506.147,296.186c.057.023.1.057.159.08l-.011-.011a.642.642,0,0,0,.08.091.261.261,0,0,1,.193.137,1.143,1.143,0,0,0,.159.091h0a1.885,1.885,0,0,1,.159.114.144.144,0,0,1,.1.08h0c.046.057.148.034.171.114.08.057.171.125.25.182l.034.023.034.023a.912.912,0,0,0,.182.091c.091.045.2.08.182.2a.209.209,0,0,1-.273.148,3.2,3.2,0,0,1-1.057-.3c-1.227-.341-2.466-.693-3.694-1.023-.193-.057-.341-.125-.341-.364v-2.3c.932.659,1.75,1.25,2.58,1.841a2.505,2.505,0,0,1,.489.341c.045.034.1.057.148.091h0c.034,0,.046.011.057.046A2.731,2.731,0,0,1,506.147,296.186Z" transform="translate(-449.988 -266.313)"/><path class="a" d="M602.063,335.219c1.228-.262,2.466-.534,3.705-.784,1.477-.3,1.466-.284,1.375,1.228-.011.261-.079.341-.364.307-1.568-.216-3.137-.421-4.717-.625Z" transform="translate(-538.881 -302.653)"/><path class="a" d="M507.492,334.7l-4.717.614c-.318.045-.421-.068-.409-.386.023-.375.011-.739,0-1.114,0-.239.091-.3.307-.25,1.6.341,3.194.671,4.8,1A.287.287,0,0,1,507.492,334.7Z" transform="translate(-449.89 -301.994)"/><path class="a" d="M544.769,323.527a.162.162,0,0,1-.17-.114C544.679,323.413,544.724,323.47,544.769,323.527Z" transform="translate(-487.589 -292.95)"/><path class="a" d="M543.642,322.639c-.034-.023-.068-.057-.1-.079C543.631,322.514,543.62,322.594,543.642,322.639Z" transform="translate(-486.643 -292.176)"/><path class="a" d="M548.548,326.094l-.034-.023.023-.011Z" transform="translate(-491.083 -295.312)"/><path class="a" d="M538.037,318.545l.011.011Z" transform="translate(-481.731 -288.604)"/><path class="a" d="M532.534,314.758h0v0Z" transform="translate(-476.819 -285.203)"/><path class="a" d="M541.953,321.425l.011-.011-.011-.012Z" transform="translate(-485.227 -291.155)"/><path class="a" d="M485.017,447.35c.034,0,.068-.011.1-.011C485.085,447.385,485.051,447.4,485.017,447.35Z" transform="translate(-434.405 -403.567)"/><path class="a" d="M504.356,361.247c-.17-.011-.307-.068-.3-.227.011-.477.057-.955.091-1.432.011-.159.114-.227.261-.261.8-.136,1.58-.33,2.375-.387.841-.068,1.648-.307,2.478-.364.1-.011.25-.125.3.046.046.148-.125.159-.227.216-1.352.648-2.7,1.307-4.057,1.955C504.97,360.94,504.72,361.213,504.356,361.247Z" transform="translate(-451.403 -324.294)"/><text class="b" transform="translate(85.727 46.087)"><tspan x="0" y="0">RADIO</tspan></text></g></svg>