<?xml version="1.0" encoding="utf-8"?>
<!-- Generator: Adobe Illustrator 21.0.2, SVG Export Plug-In . SVG Version: 6.00 Build 0)  -->
<svg version="1.1" id="Layer_1" xmlns="http://www.w3.org/2000/svg" xmlns:xlink="http://www.w3.org/1999/xlink" x="0px" y="0px"
	 viewBox="0 0 93.7 34.2" style="enable-background:new 0 0 93.7 34.2;" xml:space="preserve">
<style type="text/css">
	.st0{fill:#FFFFFF;}
	.st1{fill:#EC5B27;}
	.st2{font-family:'ArialMT';}
	.st3{font-size:7px;}
</style>
<g transform="translate(-16.004 -13.913)">
	<path d="M98.4,35.2c0.5-2.2,1-4.4,1.4-6.6c0.3-1.3,0.6-2.5,0.8-3.8c0-0.3,0.2-0.5,0.5-0.5c2.7-0.6,5.4-1.2,8.1-1.8
		c0.4-0.1,0.5,0,0.5,0.4c0,5.3,0,10.5,0,15.8c0,0.4-0.1,0.5-0.5,0.4c-1.4-0.2-2.7-0.4-4.1-0.6c-0.4,0-0.5-0.2-0.5-0.6
		c0-3.5,0-7,0-10.5c0-0.3,0-0.6-0.1-0.9c-0.3,1-0.5,2.1-0.8,3.1c-0.6,2.6-1.3,5.3-1.9,7.9c-0.1,0.4-0.2,0.5-0.6,0.4
		c-2.1-0.3-4.2-0.6-6.3-0.9c-0.3,0-0.5-0.2-0.5-0.4c-0.9-3.3-1.8-6.6-2.7-9.9c-0.1-0.4-0.1-0.5,0.3-0.6c1.2-0.2,2.4-0.5,3.5-0.8
		c0.4-0.1,0.5,0,0.5,0.4c0.7,3,1.4,6,2,9c0,0.1,0.1,0.2,0.1,0.3C98.3,35.2,98.4,35.2,98.4,35.2z"/>
	<path d="M30.4,28.6c2.7,1.4,3.6,3.9,3.7,6.7c0,0.3-0.1,0.4-0.4,0.4c-1.7,0.2-3.5,0.3-5.2,0.5c-0.4,0-0.4-0.1-0.4-0.4
		c0.1-0.8,0-1.7-0.3-2.5c-0.4-1.6-1.8-2.6-3.4-2.6c-0.7,0-1.4,0-2.1,0c-0.4,0-0.5,0.1-0.5,0.5c0,1.7,0,3.4,0,5.1
		c0,0.4-0.1,0.6-0.5,0.6c-1.6,0.1-3.1,0.3-4.7,0.5c-0.5,0.1-0.6,0-0.6-0.5c0-4.6,0-9.3,0-13.9c0-0.6,0-0.6,0.6-0.5
		c1.6,0.4,3.2,0.8,4.9,1.2c0.3,0,0.4,0.2,0.4,0.5c0,0,0,0,0,0.1c0,0.5,0,1.1,0,1.6c0,0.2,0,0.4,0.3,0.4c0.9,0,1.9,0,2.8-0.1
		c0.6-0.1,1.2-0.4,1.6-0.8c0.2-0.2,0.4-0.3,0.7-0.2c1.5,0.4,3,0.8,4.5,1.1c0.4,0.1,0.4,0.3,0.1,0.5c-0.5,0.5-1,1-1.6,1.3
		C30,28.4,30.2,28.5,30.4,28.6z"/>
	<path d="M21,13.9c1.6,0,3.2,0,4.8,0.1c1.9,0.2,3.6,0.9,5.1,2.1c1.3,1.1,2.1,2.6,2.4,4.2c0.2,1,0.2,2,0.2,3c0,0.4-0.1,0.6-0.6,0.4
		c-1.6-0.6-3.2-1.1-4.7-1.6c-0.3-0.1-0.5-0.3-0.5-0.6c-0.2-1.6-1.6-2.8-3.2-2.8c-0.7,0-1.4,0-2.1,0c-0.3,0-0.5,0.1-0.4,0.4
		c0,0.1,0,0.2,0,0.4c0,0.3-0.1,0.4-0.4,0.3c-1.7-0.6-3.5-1.2-5.2-1.8c-0.2,0-0.3-0.2-0.3-0.4c0-1.1,0-2.2,0-3.3
		c0-0.4,0.2-0.3,0.5-0.3C17.9,13.9,19.3,13.9,21,13.9z"/>
	<path d="M21.5,44.3c-1.7,0-3.3,0-5,0c-0.4,0-0.5-0.1-0.5-0.5c0-1.1,0-2.3,0-3.4c0-0.3,0.1-0.4,0.4-0.5c1.7-0.2,3.4-0.4,5-0.6
		c0.2,0,0.4-0.1,0.4,0.2c0,0.2,0.2,0.2,0.3,0.2c0.8,0,1.6,0,2.4,0c0.8,0,1.6-0.3,2.2-0.9c0.3-0.2,0.6-0.3,0.9-0.4
		c1.9-0.3,3.9-0.5,5.8-0.8c0.6-0.1,0.6,0,0.5,0.5c-0.7,3.3-3.1,5.3-6.5,6c-0.5,0.1-1,0.1-1.5,0.1L21.5,44.3z"/>
	<path d="M58.5,30c-0.8-0.7-1.5-1.3-2.2-1.9c-1.1-1-2.3-2-3.5-3c-0.2-0.2-0.4-0.5-0.3-0.7c0-0.4,0-0.8,0-1.2c0.1-1-0.5-1.9-1.5-2.2
		c-0.9-0.4-1.9-0.6-2.9-0.4c-0.3,0.1-0.6,0-0.8-0.2c-1-0.9-2.1-1.8-3.1-2.6c-0.5-0.4-0.4-0.4,0.1-0.6c1.9-0.6,3.9-0.8,5.9-0.6
		c2,0.1,4,0.8,5.7,2c1.2,0.8,2.1,2,2.4,3.4c0,0.2,0.1,0.4,0.1,0.6C58.5,25,58.5,27.4,58.5,30z"/>
	<path d="M69.6,21c-0.1,0-0.2,0.1-0.3,0.2c-1.1,0.8-1.1,1.9-1,3c0,0.4-0.1,0.7-0.4,1c-1.5,1.3-2.9,2.5-4.4,3.8
		c-0.2,0.1-0.3,0.2-0.5,0.4l0,0c-0.2,0.2-0.2,0.4-0.5,0.5c-0.1,0-0.1,0-0.2-0.1c0-0.3,0-0.6,0-0.9c0-2.1,0-4.2,0-6.3
		c0-1.3,0.6-2.6,1.7-3.5c1.4-1.3,3.1-2.1,5-2.5c1.5-0.3,3-0.4,4.5-0.2c0.2,0,0.3,0,0.5,0.1c1,0.1,1.9,0.2,2.8,0.5
		c0.1,0,0.2,0.1,0.2,0.2v0.2c-0.8,0.8-1.6,1.5-2.5,2.1c0,0-0.1,0.1-0.1,0.1c-0.2,0.3-0.4,0.5-0.7,0.7c-0.2,0.2-0.5,0.3-0.7,0.2
		C71.6,20.5,70.6,20.6,69.6,21z"/>
	<path d="M86.5,19.6c0-1.4,0-2.8,0-4.2c0-0.4,0.1-0.5,0.5-0.5c2.1,0,4.2,0,6.3,0c0.2,0,0.5,0.1,0.5,0.4c0,0,0,0,0,0
		c0.4,2,0.9,4,1.4,6c0.1,0.3-0.1,0.4-0.3,0.5c-2.6,0.8-5.2,1.5-7.9,2.3c-0.4,0.1-0.5,0-0.5-0.4C86.5,22.4,86.5,21,86.5,19.6
		L86.5,19.6z"/>
	<path d="M91.6,31.6c0,1.5,0,3.1,0,4.6c0,0.3-0.1,0.5-0.5,0.4c-1.4-0.2-2.7-0.4-4.1-0.6c-0.4,0-0.5-0.2-0.5-0.6c0-2.5,0-5,0-7.5
		c0-0.4,0.1-0.5,0.5-0.6c1.4-0.3,2.7-0.6,4.1-0.9c0.4-0.1,0.5,0,0.5,0.4C91.6,28.4,91.6,30,91.6,31.6L91.6,31.6z"/>
	<path d="M45.5,25.1c0,0.8,0,1.6,0,2.3c0,0.3-0.1,0.4-0.4,0.3c-1.9-0.5-3.9-1.1-5.8-1.6c-0.2,0-0.3-0.1-0.3-0.3
		c-0.1-1.4,0-2.8,0.2-4.2c0.2-0.9,0.7-1.7,1.4-2.3c0.1-0.2,0.4-0.2,0.5-0.1c0,0,0,0,0,0c1.4,1,2.8,2,4.2,3c0.2,0.1,0.2,0.3,0.2,0.5
		C45.5,23.5,45.5,24.3,45.5,25.1L45.5,25.1z"/>
	<path d="M75.2,25c0-0.8,0-1.6,0-2.3c0-0.2,0.1-0.4,0.2-0.5c1.4-1,2.8-1.9,4.1-2.9c0.1-0.1,0.3-0.1,0.5,0c0,0,0,0,0,0.1
		c0.9,0.9,1.5,2,1.5,3.3c0,1,0,2,0,3c0,0.2-0.1,0.4-0.3,0.5c0,0,0,0,0,0c-1.9,0.5-3.8,1-5.6,1.6c-0.3,0.1-0.5,0-0.4-0.3
		C75.3,26.6,75.2,25.8,75.2,25L75.2,25z"/>
	<path d="M75.5,43.4c-0.7,0.2-1.3,0.4-2,0.4c-2.7,0.3-5.4-0.2-7.8-1.4c-1.2-0.6-2.2-1.6-2.9-2.8c-0.4-0.9-0.6-1.8-0.5-2.8
		c0-0.5,0.3-0.2,0.5-0.1c1.2,0.6,2.5,1.3,3.7,1.9c2.9,1.5,5.8,3,8.7,4.5C75.2,43.2,75.3,43.3,75.5,43.4z"/>
	<path d="M57.7,36.9c-0.5,0.1-1,0.4-1.4,0.7l0,0c-0.9,0.4-1.8,0.9-2.6,1.4h0c-0.2,0.2-0.5,0-0.7,0.3h0c-0.4,0.1-0.8,0.3-1.2,0.6
		c-1.2,0.6-2.4,1.2-3.6,1.9c0,0-0.1,0.1-0.1,0.1c-0.5,0.3-1,0.5-1.5,0.8c-0.1,0-0.1,0.1-0.2,0.1c0,0.1-0.1,0.1-0.1,0.2
		c-0.1,0.1-0.3,0.2-0.4,0.2c-0.1,0.1-0.2,0.1-0.3,0.2l0,0c0,0,0,0-0.1,0c0,0,0,0,0,0c0,0.3,0,0.3,0.2,0.3c0.3,0.1,0.7,0,1,0.1l0.4,0
		c0.4,0.1,0.8,0.1,1.2,0.1c0.1,0,0.2,0,0.3,0c0.3,0.1,0.5,0.1,0.8,0c0.2,0,0.3,0,0.5,0c0.1,0,0.3,0,0.4,0l0.4,0c0,0,0.1,0,0.1,0
		c0.1,0,0.1,0,0.2,0c0.2,0,0.3,0,0.5-0.1c1-0.1,1.9-0.4,2.8-0.8c0.6-0.3,1.2-0.6,1.8-1c1.6-0.9,2.5-2.6,2.6-4.5
		C58.5,36.5,58.5,36.5,57.7,36.9z"/>
	<path d="M48,39.7c-1.1,0.6-2.2,1.1-3.3,1.6c-0.6,0.3-1.2,0.6-1.8,0.9c-0.2,0.1-0.3,0.2-0.5,0.1c-1.7-1-3.1-2.3-3.3-4.5
		c-0.1-1-0.1-1,0.9-1.1c1.7-0.2,3.3-0.5,5-0.7c0.4-0.1,0.6,0,0.5,0.5c-0.2,1.7,0.4,2.5,2.3,3.1C47.8,39.6,47.9,39.6,48,39.7z"/>
	<path d="M39.1,31.9c0-0.9,0-1.9,0-2.8c0-0.4,0.1-0.4,0.4-0.4c1.9,0.4,3.8,0.8,5.6,1.2c0.3,0.1,0.4,0.2,0.4,0.5c0,1.1,0,2.3,0,3.4
		c0,0.3-0.1,0.4-0.4,0.4c-1.9,0.3-3.8,0.5-5.7,0.8c-0.3,0-0.4-0.1-0.4-0.4L39.1,31.9L39.1,31.9z"/>
	<path d="M72.8,39.7c0.4-0.2,0.8-0.3,1.1-0.5c0.9-0.4,1.5-1.3,1.4-2.3c-0.1-1,0-1,1-0.9c1.7,0.2,3.3,0.5,5,0.7
		c0.3,0,0.4,0.2,0.4,0.5c0,1.9-1,3.6-2.5,4.6c-0.5,0.5-1.2,0.5-1.8,0.1C75.9,41.1,74.3,40.4,72.8,39.7z"/>
	<path d="M81.7,32c0,0.9,0,1.8,0,2.7c0,0.3-0.1,0.4-0.4,0.4c-1.9-0.3-3.7-0.5-5.6-0.8c-0.3,0-0.4-0.2-0.4-0.5c0-1.1,0-2.3,0-3.4
		c0-0.2,0.1-0.4,0.3-0.5c0,0,0,0,0.1,0c1.9-0.4,3.7-0.8,5.6-1.2c0.4-0.1,0.5,0.1,0.5,0.4C81.7,30.1,81.7,31.1,81.7,32L81.7,32z"/>
	<path d="M106.2,15c1,0,2,0,3,0c0.3,0,0.4,0,0.4,0.4c0,0.6,0,1.2,0,1.8c0,0.2-0.1,0.4-0.3,0.4c0,0,0,0,0,0c-2.4,0.7-4.8,1.4-7.2,2.1
		c-0.4,0.1-0.4,0-0.3-0.3c0.3-1.3,0.6-2.7,0.9-4c0.1-0.4,0.3-0.4,0.6-0.4L106.2,15z"/>
	<path d="M86.6,43.5c-0.2-0.1,0-4.1-0.1-5.5c0-0.2,0.1-0.3,0.3-0.2l4.5,0.7c0.2,0,0.3,0.1,0.3,0.3c0,1.5,0,3,0,4.6
		c0,0.3-0.1,0.4-0.4,0.4C90.8,43.6,86.8,43.6,86.6,43.5z"/>
	<path d="M96.2,42.9c-0.2-0.4-0.3-0.8-0.4-1.2c-0.2-0.7-0.4-1.5-0.6-2.2c-0.1-0.4,0-0.5,0.4-0.5c1.6,0.3,3.2,0.5,4.9,0.8
		c0.8,0.1,0.8,0.1,0.6,1c-0.2,0.9-0.4,1.7-0.7,2.5C100.2,43.8,96.5,44,96.2,42.9z"/>
	<path d="M68.3,36.1v0.8c0,0.5,0,0.6-0.5,0.3c-1.4-0.7-2.7-1.3-4-2c-0.4-0.2-0.9-0.4-1.3-0.6c-0.2-0.1-0.3-0.2-0.2-0.4c0,0,0,0,0,0
		c0.1-0.2,0.3-0.1,0.4-0.1c1.7,0.3,3.5,0.5,5.2,0.8c0.4,0,0.5,0.2,0.4,0.5C68.2,35.6,68.2,35.9,68.3,36.1L68.3,36.1z"/>
	<path d="M104.7,43.6c-0.1-0.9-0.1-1.8,0-2.8c0-0.3,0.1-0.4,0.4-0.3c1.4,0.2,2.8,0.4,4.3,0.6c0.3,0,0.5,0.1,0.5,0.5
		c0,0.6,0.1,1.8-0.2,2C107.9,43.7,106.3,43.7,104.7,43.6z"/>
	<path d="M68.3,27.3v2.3c0,0.2-0.1,0.3-0.3,0.4c-0.1,0-0.2,0-0.3,0.1c-1.8,0.5-3.5,1-5.3,1.5c0,0,0-0.1-0.1-0.1
		C64.3,30,66.2,28.7,68.3,27.3z"/>
	<path d="M56.2,29.9c0.1,0,0.1,0.1,0.2,0.1l0,0c0,0,0.1,0.1,0.1,0.1c0.1,0,0.2,0.1,0.2,0.1c0.1,0,0.1,0.1,0.2,0.1l0,0
		c0.1,0,0.1,0.1,0.2,0.1c0,0,0.1,0,0.1,0.1l0,0c0,0.1,0.1,0,0.2,0.1c0.1,0.1,0.2,0.1,0.3,0.2l0,0l0,0c0.1,0,0.1,0.1,0.2,0.1
		c0.1,0,0.2,0.1,0.2,0.2c0,0.1-0.1,0.2-0.3,0.2c0,0,0,0,0,0c-0.4,0-0.7-0.1-1.1-0.3c-1.2-0.3-2.5-0.7-3.7-1
		c-0.2-0.1-0.3-0.1-0.3-0.4v-2.3c0.9,0.7,1.8,1.3,2.6,1.8c0.2,0.1,0.3,0.2,0.5,0.3c0,0,0.1,0.1,0.1,0.1l0,0c0,0,0,0,0.1,0
		C55.9,29.7,56,29.8,56.2,29.9z"/>
	<path d="M63.2,32.6c1.2-0.3,2.5-0.5,3.7-0.8c1.5-0.3,1.5-0.3,1.4,1.2c0,0.3-0.1,0.3-0.4,0.3c-1.6-0.2-3.1-0.4-4.7-0.6L63.2,32.6z"
		/>
	<path d="M57.6,32.7l-4.7,0.6c-0.3,0-0.4-0.1-0.4-0.4c0-0.4,0-0.7,0-1.1c0-0.2,0.1-0.3,0.3-0.3c1.6,0.3,3.2,0.7,4.8,1
		C57.6,32.6,57.6,32.7,57.6,32.7z"/>
	<path class="st0" d="M57.2,30.6c-0.1,0-0.1,0-0.2-0.1C57.1,30.5,57.1,30.5,57.2,30.6z"/>
	<path class="st0" d="M57,30.5C57,30.4,56.9,30.4,57,30.5C57,30.3,57,30.4,57,30.5z"/>
	<path class="st0" d="M57.5,30.8L57.5,30.8L57.5,30.8L57.5,30.8z"/>
	<path class="st0" d="M56.3,29.9L56.3,29.9L56.3,29.9z"/>
	<path class="st0" d="M55.7,29.6L55.7,29.6L55.7,29.6z"/>
	<path class="st0" d="M56.7,30.3L56.7,30.3L56.7,30.3L56.7,30.3z"/>
	<path class="st0" d="M50.6,43.8c0,0,0.1,0,0.1,0C50.7,43.8,50.6,43.8,50.6,43.8z"/>
	<path d="M53,37c-0.2,0-0.3-0.1-0.3-0.2c0-0.5,0.1-1,0.1-1.4c0-0.2,0.1-0.2,0.3-0.3c0.8-0.1,1.6-0.3,2.4-0.4
		c0.8-0.1,1.6-0.3,2.5-0.4c0.1,0,0.3-0.1,0.3,0c0,0.1-0.1,0.2-0.2,0.2c-1.4,0.6-2.7,1.3-4.1,2C53.6,36.6,53.3,36.9,53,37z"/>
	<text transform="matrix(1 0 0 1 85.727 46.087)" class="st1 st2 st3">RADIO</text>
</g>
</svg>
