<svg xmlns="http://www.w3.org/2000/svg" width="31.1" height="31.1" viewBox="0 0 31.1 31.1"><defs><style>.a,.b{fill:none;}.b{stroke:#faa294;stroke-linecap:round;stroke-width:2px;}.c,.d{stroke:none;}.d{fill:#eb5b27;}</style></defs><g transform="translate(-60 -30)"><g class="a" transform="translate(60 30)"><path class="c" d="M15.55,0A15.55,15.55,0,1,1,0,15.55,15.55,15.55,0,0,1,15.55,0Z"/><path class="d" d="M 15.55000305175781 2.000003814697266 C 11.93066215515137 2.000003814697266 8.527963638305664 3.409452438354492 5.96870231628418 5.96870231628418 C 3.409452438354492 8.527963638305664 2.000003814697266 11.93066215515137 2.000003814697266 15.55000305175781 C 2.000003814697266 19.16934204101563 3.409452438354492 22.57204437255859 5.96870231628418 25.13130187988281 C 8.527963638305664 27.69055366516113 11.93066215515137 29.10000228881836 15.55000305175781 29.10000228881836 C 19.16934204101563 29.10000228881836 22.57204437255859 27.69055366516113 25.13130187988281 25.13130187988281 C 27.69055366516113 22.57204437255859 29.10000228881836 19.16934204101563 29.10000228881836 15.55000305175781 C 29.10000228881836 11.93066215515137 27.69055366516113 8.527963638305664 25.13130187988281 5.96870231628418 C 22.57204437255859 3.409452438354492 19.16934204101563 2.000003814697266 15.55000305175781 2.000003814697266 M 15.55000305175781 3.814697265625e-06 C 24.13803291320801 3.814697265625e-06 31.10000228881836 6.961973190307617 31.10000228881836 15.55000305175781 C 31.10000228881836 24.13803291320801 24.13803291320801 31.10000228881836 15.55000305175781 31.10000228881836 C 6.961973190307617 31.10000228881836 3.814697265625e-06 24.13803291320801 3.814697265625e-06 15.55000305175781 C 3.814697265625e-06 6.961973190307617 6.961973190307617 3.814697265625e-06 15.55000305175781 3.814697265625e-06 Z"/></g><line class="b" x2="14" transform="translate(71.05 41.05) rotate(45)"/><line class="b" y2="14" transform="translate(80.95 41.05) rotate(45)"/></g></svg>