<svg xmlns="http://www.w3.org/2000/svg" width="47.319" height="44.63" viewBox="0 0 47.319 44.63"><defs><style>.a{fill:#eb5b27;fill-rule:evenodd;}</style></defs><g transform="translate(-1051.714 -2355.175)"><path class="a" d="M508.6,235.874c0-2.183.032-4.251-.006-6.318-.093-5.1,3.975-10.3,10.138-11.407a14.2,14.2,0,0,1,11.1,2.145,11.774,11.774,0,0,1,5.1,10.271c-.009,1.758,0,3.515,0,5.4a10.253,10.253,0,0,1,1.652-.47,7.115,7.115,0,0,1,2.332-.034,1.969,1.969,0,0,1,1.712,1.908,3.125,3.125,0,0,1-1.138,2.071,13.852,13.852,0,0,1-3.009,1.358c-1.619.664-1.843,1.135-1.023,2.677,1.832,3.446,4.341,6.1,8.318,7.061a2.429,2.429,0,0,1,1.488,1.169,1.575,1.575,0,0,1-.908,2.02,21.565,21.565,0,0,1-4.065,1.477c-.891.213-1.379.471-1.58,1.424-.368,1.755-1.009,2.115-2.808,1.717a8.209,8.209,0,0,0-7.354,1.567,10.342,10.342,0,0,1-13.618.034,8.125,8.125,0,0,0-7.446-1.56c-1.72.421-2.4-.026-2.764-1.789-.183-.884-.614-1.19-1.487-1.387a23.047,23.047,0,0,1-3.976-1.374,1.872,1.872,0,0,1-1.173-2.054c.13-.923.911-1.135,1.68-1.32,4.249-1.02,6.77-3.955,8.534-7.722a1.057,1.057,0,0,0-.537-1.538c-.543-.275-1.129-.463-1.691-.7a16.636,16.636,0,0,1-1.879-.846c-1.263-.739-1.714-1.821-1.271-2.864a2.949,2.949,0,0,1,3.316-1.411c.549.163,1.09.353,1.644.495A3.141,3.141,0,0,0,508.6,235.874Z" transform="translate(553.66 2137.324)"/></g></svg>