<svg xmlns="http://www.w3.org/2000/svg" width="45.778" height="37.131" viewBox="0 0 45.778 37.131"><defs><style>.a{fill:#eb5b27;fill-rule:evenodd;}</style></defs><g transform="translate(0 -5.72)"><path class="a" d="M52.5,39.131c17.294,0,26.7-14.242,26.7-26.7V11.156a20.673,20.673,0,0,0,4.578-4.832,21.112,21.112,0,0,1-5.341,1.526,9.9,9.9,0,0,0,4.069-5.086,23.327,23.327,0,0,1-5.849,2.289A9.083,9.083,0,0,0,69.79,2a9.555,9.555,0,0,0-9.41,9.41,4.958,4.958,0,0,0,.254,2.035A26.294,26.294,0,0,1,41.306,3.526a9.739,9.739,0,0,0-1.272,4.832A10.1,10.1,0,0,0,44.1,16.242,8.574,8.574,0,0,1,39.78,14.97h0a9.3,9.3,0,0,0,7.63,9.156,7.84,7.84,0,0,1-2.543.254,4.328,4.328,0,0,1-1.78-.254,9.635,9.635,0,0,0,8.9,6.612,19.2,19.2,0,0,1-11.7,4.069A7.041,7.041,0,0,1,38,34.553a24,24,0,0,0,14.5,4.578" transform="translate(-38 3.72)"/></g></svg>