<svg xmlns="http://www.w3.org/2000/svg" width="268.468" height="100.493" viewBox="0 0 268.468 100.493">
  <defs>
    <style>
      .cls-1 {
        fill: #fff;
      }

      .cls-2 {
        fill: #ec5b27;
        font-size: 18px;
        font-family: BrandonGrotesque-Regular, Brandon Grotesque;
      }
    </style>
  </defs>
  <g id="boom_logo_white" data-name="boom logo white" transform="translate(-59.532 -42.743)">
    <path id="Path_212" data-name="Path 212" class="cls-1" d="M886.979,285.617q2.052-9.428,4.071-18.855c.782-3.582,1.6-7.2,2.312-10.779a1.7,1.7,0,0,1,1.466-1.5q11.576-2.443,23.121-5.015c1.042-.228,1.335,0,1.335,1.075q-.049,22.616,0,45.2c0,1.14-.326,1.368-1.4,1.2-3.875-.586-7.75-1.107-11.658-1.6-1.14-.13-1.433-.619-1.433-1.791.065-10.03.032-20.06.065-30.089a7.8,7.8,0,0,0-.325-2.7c-.716,3-1.433,5.992-2.182,8.988-1.823,7.587-3.68,15.143-5.438,22.73-.26,1.075-.521,1.465-1.791,1.27-5.992-.912-11.984-1.693-17.976-2.475a1.5,1.5,0,0,1-1.5-1.237q-3.761-14.165-7.62-28.331c-.293-1.042-.162-1.5.944-1.726,3.354-.684,6.74-1.368,10.062-2.149,1.01-.228,1.335.033,1.563,1.01,1.921,8.629,3.875,17.292,5.829,25.921.065.261.2.521.261.814A1.009,1.009,0,0,0,886.979,285.617Z" transform="translate(-591.387 -182.003)"/>
    <path id="Path_213" data-name="Path 213" class="cls-1" d="M204.129,266.63c7.62,4.136,10.225,11.039,10.714,19.181.065.912-.293,1.139-1.14,1.2-4.95.456-9.932.944-14.882,1.433-1.01.1-1.237-.2-1.14-1.173a18.44,18.44,0,0,0-.716-7.164c-1.5-4.722-4.754-7.262-9.737-7.457-2.019-.065-4.071.032-6.09-.065-1.14-.033-1.5.326-1.5,1.465.065,4.885-.032,9.769.033,14.654.033,1.237-.293,1.661-1.563,1.759-4.494.358-8.955.814-13.417,1.335-1.335.163-1.856-.065-1.824-1.563.032-13.221,0-26.507,0-39.761,0-1.726,0-1.759,1.661-1.335,4.657,1.172,9.281,2.377,13.938,3.484a1.323,1.323,0,0,1,1.2,1.6c-.033,1.563,0,3.094-.033,4.657,0,.554,0,1.075.814,1.075,2.7-.065,5.438.228,8.109-.26a8.489,8.489,0,0,0,4.592-2.312,1.841,1.841,0,0,1,1.954-.554c4.3,1.107,8.629,2.215,12.961,3.257,1.172.293,1.14.717.423,1.5a14.943,14.943,0,0,1-4.657,3.647C202.826,265.881,203.38,266.272,204.129,266.63Z" transform="translate(-103.303 -181.675)"/>
    <path id="Path_214" data-name="Path 214" class="cls-1" d="M177.029,169.34c4.168.163,9.02-.326,13.84.326,5.373.749,10.388,2.41,14.622,5.894,3.81,3.094,5.829,7.262,6.806,11.984a35.662,35.662,0,0,1,.456,8.532c-.032,1.14-.293,1.661-1.661,1.172-4.494-1.628-9.053-3.159-13.579-4.689a2.021,2.021,0,0,1-1.5-1.693c-1.042-4.982-4.005-7.62-9.085-7.978-2.019-.13-4.071-.033-6.09-.1-.944-.033-1.368.293-1.27,1.237.033.326,0,.684.033,1.01.065.912-.2,1.237-1.172.912-4.95-1.726-9.9-3.387-14.849-5.08a1.054,1.054,0,0,1-.814-1.172c.032-3.159.032-6.285,0-9.444-.033-1.107.684-.944,1.368-.944C168.2,169.34,172.274,169.34,177.029,169.34Z" transform="translate(-103.232 -126.556)"/>
    <path id="Path_215" data-name="Path 215" class="cls-1" d="M178.622,409.327c-4.787,0-9.574-.033-14.393.032-1.172,0-1.5-.358-1.465-1.466.065-3.257.065-6.48,0-9.737-.033-.944.293-1.237,1.2-1.367,4.787-.586,9.607-1.237,14.393-1.856.554-.065,1.205-.293,1.205.684,0,.586.489.619.944.619,2.279-.032,4.559.033,6.838-.1a9.571,9.571,0,0,0,6.187-2.54,4.422,4.422,0,0,1,2.638-1.009c5.5-.716,11.039-1.466,16.543-2.149,1.628-.2,1.693-.13,1.335,1.465-2.084,9.443-8.923,15.045-18.627,17.064a19.985,19.985,0,0,1-4.2.358Z" transform="translate(-103.229 -279.596)"/>
    <path id="Path_216" data-name="Path 216" class="cls-1" d="M464.831,231.692c-2.344-1.987-4.4-3.712-6.415-5.438-3.289-2.833-6.578-5.7-9.9-8.532a2.345,2.345,0,0,1-.944-2.117c.065-1.107-.033-2.214.032-3.321.2-3.159-1.531-5.048-4.168-6.35a13.716,13.716,0,0,0-8.369-1.075,2.46,2.46,0,0,1-2.247-.619c-2.931-2.54-5.894-5.015-8.825-7.555-1.3-1.107-1.27-1.27.391-1.823a41.941,41.941,0,0,1,16.933-1.6,32.216,32.216,0,0,1,16.217,5.764c3.452,2.442,6.154,5.438,7,9.769a10.019,10.019,0,0,1,.228,1.726C464.831,217.429,464.831,224.333,464.831,231.692Z" transform="translate(-283.442 -142.993)"/>
    <path id="Path_217" data-name="Path 217" class="cls-1" d="M613.705,205.636a1.265,1.265,0,0,0-.879.554c-3.028,2.214-3.061,5.471-2.866,8.727a3.1,3.1,0,0,1-1.172,2.768c-4.2,3.615-8.434,7.2-12.635,10.844a13.759,13.759,0,0,1-1.531,1.01l-.033.032c-.488.456-.684,1.237-1.531,1.3-.228,0-.423.032-.554-.2a8.753,8.753,0,0,1,0-2.442c-.1-5.992-.033-11.984-.065-17.976-.032-3.94,1.889-7.262,4.754-9.9a28.831,28.831,0,0,1,14.2-7.1,40.174,40.174,0,0,1,12.8-.619c.488.065.944.1,1.433.163a29.816,29.816,0,0,1,8.043,1.563,1.006,1.006,0,0,1,.651.554v.521a44.881,44.881,0,0,1-7.2,6.154c-.1.1-.228.2-.326.293a10.2,10.2,0,0,1-2.052,2.051,2.752,2.752,0,0,1-2.117.619A18.154,18.154,0,0,0,613.705,205.636Z" transform="translate(-400.663 -142.532)"/>
    <path id="Path_218" data-name="Path 218" class="cls-1" d="M819.469,192.741c0-3.973.032-7.946-.032-11.918,0-1.01.261-1.335,1.3-1.335,6.057.033,12.081.033,18.138,0a1.267,1.267,0,0,1,1.465,1.172c1.27,5.7,2.54,11.43,3.875,17.1.228.912-.163,1.14-.944,1.368Q831.991,202.4,820.74,205.8c-1.173.359-1.3-.065-1.3-1.042.032-3.973,0-7.979.032-12.017Z" transform="translate(-557.841 -133.609)"/>
    <path id="Path_219" data-name="Path 219" class="cls-1" d="M833.789,300.586c0,4.4-.032,8.792,0,13.221,0,.977-.2,1.368-1.3,1.2-3.875-.586-7.75-1.107-11.625-1.628-1.108-.13-1.531-.521-1.531-1.726q.1-10.746,0-21.492c0-1.107.358-1.5,1.4-1.726,3.875-.782,7.783-1.6,11.625-2.507,1.172-.293,1.433.033,1.433,1.14-.032,4.526,0,9.02,0,13.514Z" transform="translate(-557.767 -207.23)"/>
    <path id="Path_220" data-name="Path 220" class="cls-1" d="M395.912,235.663c0,2.215-.032,4.461,0,6.676.032.912-.261,1.075-1.107.814q-8.3-2.345-16.608-4.657c-.456-.13-.782-.293-.782-.847.2-4.005-.456-8.043.521-12.016a14.085,14.085,0,0,1,3.875-6.513,1.069,1.069,0,0,1,1.628-.13c3.973,2.833,7.978,5.666,11.951,8.467.554.391.521.847.521,1.367q0,3.419,0,6.839Z" transform="translate(-251.809 -160.738)"/>
    <path id="Path_221" data-name="Path 221" class="cls-1" d="M714.163,235.286c0-2.214.033-4.461-.032-6.676a1.343,1.343,0,0,1,.684-1.3c3.94-2.8,7.913-5.569,11.821-8.369a.971.971,0,0,1,1.5.13,13.456,13.456,0,0,1,4.4,9.476c.065,2.9,0,5.8.033,8.695a1.117,1.117,0,0,1-.944,1.3c-5.406,1.465-10.812,3-16.185,4.526-.977.293-1.3.065-1.27-.977.065-2.28.032-4.559.032-6.806Z" transform="translate(-484.937 -160.719)"/>
    <path id="Path_222" data-name="Path 222" class="cls-1" d="M630.89,399.766a21.368,21.368,0,0,1-5.862,1.107c-7.815.651-15.4-.163-22.339-4.136a20.171,20.171,0,0,1-8.271-7.913,15,15,0,0,1-1.5-7.881c.065-1.465.944-.554,1.367-.358,3.549,1.791,7.034,3.648,10.551,5.471q12.407,6.5,24.847,12.993A8.808,8.808,0,0,1,630.89,399.766Z" transform="translate(-401.012 -272.511)"/>
    <path id="Path_223" data-name="Path 223" class="cls-1" d="M471.742,381.35A11.294,11.294,0,0,0,467.7,383.4h0a46.846,46.846,0,0,0-7.588,4.006h-.032c-.586.456-1.531.13-1.889.977h-.032a18.863,18.863,0,0,0-3.387,1.6c-3.452,1.791-6.936,3.549-10.388,5.34a1.171,1.171,0,0,1-.326.228,37.013,37.013,0,0,1-4.233,2.182c-.228.1-.423.163-.619.228a1.85,1.85,0,0,1-.423.456,6.845,6.845,0,0,1-1.27.684,2.821,2.821,0,0,1-.879.456l-.032.033a.119.119,0,0,1-.163.065c0,.716,0,.749.651.944.912.261,1.889.13,2.833.358.358.033.684.065,1.042.1a12.49,12.49,0,0,0,3.484.261,7.915,7.915,0,0,1,.879.033,5.547,5.547,0,0,0,2.312,0c.488,0,.977-.033,1.465-.033a3.778,3.778,0,0,0,1.205-.1c.391-.032.749-.065,1.14-.1a.318.318,0,0,0,.293-.032c.2,0,.391-.033.586-.033.489-.032.944-.1,1.433-.163a19.828,19.828,0,0,0,7.881-2.41,33.507,33.507,0,0,0,5.145-2.963c4.364-3.159,7.425-7.034,7.359-12.765C474.054,380.211,474.086,380.211,471.742,381.35Z" transform="translate(-292.697 -272.852)"/>
    <path id="Path_224" data-name="Path 224" class="cls-1" d="M402.782,385.054c-3.289,1.628-6.35,3.159-9.411,4.689-1.726.847-3.452,1.726-5.21,2.572-.489.228-.912.554-1.5.2-4.95-2.931-8.825-6.643-9.411-12.765-.261-2.833-.261-2.866,2.508-3.256,4.787-.684,9.574-1.335,14.361-2.084,1.2-.2,1.726.1,1.563,1.367-.586,4.95,1.2,7.294,6.448,8.923A2.234,2.234,0,0,1,402.782,385.054Z" transform="translate(-251.645 -268.512)"/>
    <path id="Path_225" data-name="Path 225" class="cls-1" d="M377.49,316.7c0-2.67.033-5.308,0-7.978-.033-1.009.326-1.27,1.27-1.042q8.06,1.758,16.184,3.419c.847.163,1.075.586,1.075,1.367q-.048,4.934,0,9.867c0,.749-.163,1.107-1.009,1.237-5.471.716-10.909,1.466-16.38,2.247-.977.13-1.14-.326-1.14-1.14V316.7Z" transform="translate(-251.883 -222.306)"/>
    <path id="Path_226" data-name="Path 226" class="cls-1" d="M691.172,385.355c1.237-.489,2.247-.847,3.191-1.3,2.67-1.3,4.136-3.322,3.973-6.448-.163-3-.065-3,2.931-2.572,4.754.684,9.476,1.4,14.23,2.019.944.13,1.173.488,1.205,1.367.163,5.829-2.866,9.8-7.294,13.123a4.079,4.079,0,0,1-5.178.391C700.095,389.589,695.731,387.6,691.172,385.355Z" transform="translate(-469.044 -268.846)"/>
    <path id="Path_227" data-name="Path 227" class="cls-1" d="M732.748,316.845c0,2.605-.032,5.243,0,7.848,0,.847-.163,1.27-1.14,1.14-5.373-.782-10.713-1.531-16.087-2.214-.944-.131-1.172-.489-1.172-1.4.065-3.256.032-6.481,0-9.737a1.17,1.17,0,0,1,1.107-1.367c5.341-1.107,10.714-2.247,16.054-3.419,1.14-.261,1.3.2,1.3,1.172-.065,2.637-.033,5.308-.065,7.978Z" transform="translate(-485.09 -222.316)"/>
    <path id="Path_228" data-name="Path 228" class="cls-1" d="M973.95,179.38c2.9,0,5.8.032,8.695,0,.814,0,1.27.13,1.237,1.107-.065,1.726-.065,3.484-.032,5.21a1.064,1.064,0,0,1-.912,1.2q-10.4,3.029-20.744,6.09c-1.107.326-1.14-.065-.944-.944.847-3.81,1.693-7.653,2.475-11.5.228-1.14.912-1.172,1.791-1.172Z" transform="translate(-655.954 -133.535)"/>
    <path id="Path_229" data-name="Path 229" class="cls-1" d="M819.291,407.715c-.6-.425-.1-11.867-.163-15.742,0-.586.326-.717.879-.651,4.266.651,8.5,1.3,12.765,1.954.619.1.781.391.781.977,0,4.364,0,8.695.033,13.058,0,.814-.293,1.107-1.14,1.01C831.437,408.19,819.9,408.14,819.291,407.715Z" transform="translate(-557.532 -280.25)"/>
    <path id="Path_230" data-name="Path 230" class="cls-1" d="M902.709,414.68a20.891,20.891,0,0,1-1.14-3.387c-.651-2.084-1.074-4.2-1.726-6.285-.391-1.27-.032-1.5,1.172-1.3,4.624.749,9.281,1.433,13.9,2.149,2.345.358,2.377.391,1.759,2.8s-1.324,6.052-1.954,7.229S903.48,417.754,902.709,414.68Z" transform="translate(-613.402 -288.792)"/>
    <path id="Path_231" data-name="Path 231" class="cls-1" d="M610.3,362.494v2.182c-.033,1.563-.065,1.6-1.4.912-3.875-1.921-7.718-3.81-11.56-5.731-1.205-.586-2.443-1.2-3.647-1.791a.973.973,0,0,1-.651-1.27c.2-.619.749-.358,1.107-.293,4.982.716,9.965,1.465,14.947,2.149,1.01.13,1.3.586,1.237,1.5a18.82,18.82,0,0,0-.032,2.344Z" transform="translate(-401.065 -256.08)"/>
    <path id="Path_232" data-name="Path 232" class="cls-1" d="M987.784,426.059c-.436-.154-.037-5.736-.1-7.885-.032-.782.163-1.14,1.075-.977,4.038.651,8.109,1.237,12.179,1.823.912.13,1.368.423,1.3,1.433-.13,1.726.265,5.247-.5,5.606S988.22,426.213,987.784,426.059Z" transform="translate(-674.244 -298.148)"/>
    <path id="Path_233" data-name="Path 233" class="cls-1" d="M611.459,293.675v6.513c0,.554-.163.944-.716,1.075-.228.065-.456.1-.716.162-5.048,1.433-10.128,2.866-15.175,4.3-.065-.1-.13-.228-.2-.326C600.159,301.556,605.63,297.746,611.459,293.675Z" transform="translate(-402.227 -212.661)"/>
    <path id="Path_234" data-name="Path 234" class="cls-1" d="M512.994,301.061c.163.065.293.163.456.228l-.032-.033a1.864,1.864,0,0,0,.228.261.749.749,0,0,1,.554.391,3.274,3.274,0,0,0,.456.261h0a5.424,5.424,0,0,1,.456.326.413.413,0,0,1,.293.228h0c.13.163.423.1.489.326.228.162.489.358.716.521l.1.065.1.065a2.617,2.617,0,0,0,.521.261c.261.13.586.228.521.586a.6.6,0,0,1-.782.423,9.161,9.161,0,0,1-3.028-.847c-3.517-.977-7.067-1.987-10.584-2.931-.554-.163-.977-.358-.977-1.042v-6.578c2.67,1.889,5.015,3.582,7.392,5.275a7.183,7.183,0,0,1,1.4.977c.13.1.293.163.423.261h0c.1,0,.13.032.163.13A7.828,7.828,0,0,1,512.994,301.061Z" transform="translate(-338.411 -212.589)"/>
    <path id="Path_235" data-name="Path 235" class="cls-1" d="M602.063,336.964c3.517-.749,7.066-1.531,10.616-2.247,4.233-.846,4.2-.814,3.941,3.517-.032.749-.228.977-1.042.879-4.494-.619-8.988-1.2-13.514-1.791Z" transform="translate(-407.355 -240.774)"/>
    <path id="Path_236" data-name="Path 236" class="cls-1" d="M517.054,336.843c-4.494.586-9.02,1.172-13.514,1.759-.912.13-1.2-.2-1.172-1.107.065-1.075.032-2.117,0-3.191,0-.684.261-.846.879-.716,4.592.977,9.15,1.921,13.742,2.866A.822.822,0,0,1,517.054,336.843Z" transform="translate(-338.335 -240.263)"/>
    <path id="Path_237" data-name="Path 237" class="cls-1" d="M545.087,323.739a.463.463,0,0,1-.488-.326C544.827,323.413,544.957,323.576,545.087,323.739Z" transform="translate(-367.573 -233.248)"/>
    <path id="Path_238" data-name="Path 238" class="cls-1" d="M543.833,322.813c-.1-.065-.2-.162-.293-.228C543.8,322.455,543.768,322.683,543.833,322.813Z" transform="translate(-366.84 -232.648)"/>
    <path id="Path_239" data-name="Path 239" class="cls-1" d="M548.612,326.158l-.1-.065.065-.032Z" transform="translate(-370.283 -235.081)"/>
    <path id="Path_240" data-name="Path 240" class="cls-1" d="M538.037,318.545l.032.033Z" transform="translate(-363.03 -229.878)"/>
    <path id="Path_241" data-name="Path 241" class="cls-1" d="M532.534,314.8h0v0Z" transform="translate(-359.22 -227.24)"/>
    <path id="Path_242" data-name="Path 242" class="cls-1" d="M541.953,321.467l.033-.032-.033-.033Z" transform="translate(-365.741 -231.856)"/>
    <path id="Path_243" data-name="Path 243" class="cls-1" d="M485.017,447.372c.1,0,.2-.033.293-.033C485.212,447.469,485.115,447.5,485.017,447.372Z" transform="translate(-326.325 -319.041)"/>
    <path id="Path_244" data-name="Path 244" class="cls-1" d="M504.908,366.317c-.488-.032-.879-.2-.846-.651.032-1.368.162-2.735.26-4.1.033-.456.326-.651.749-.749,2.279-.391,4.526-.944,6.806-1.107,2.41-.2,4.722-.879,7.1-1.042.293-.032.717-.358.847.13.131.423-.358.456-.651.619-3.875,1.856-7.75,3.745-11.625,5.6C506.667,365.438,505.95,366.22,504.908,366.317Z" transform="translate(-339.508 -257.558)"/>
    <text id="RADIO" class="cls-2" transform="translate(259.306 136.236)"><tspan x="0" y="0">RADIO</tspan></text>
  </g>
</svg>
