<svg xmlns="http://www.w3.org/2000/svg" width="45.778" height="45.778" viewBox="0 0 45.778 45.778">
  <defs>
    <style>
      .cls-1 {
        fill: #eb5b27;
        fill-rule: evenodd;
      }
    </style>
  </defs>
  <g id="Instagram" transform="translate(-973.669 -2354.601)">
    <path id="Path_3" data-name="Path 3" class="cls-1" d="M22.889,4.069c6.1,0,6.867,0,9.156.254a11.8,11.8,0,0,1,4.323.763A8.932,8.932,0,0,1,40.691,9.41a11.8,11.8,0,0,1,.763,4.323c0,2.289.254,3.052.254,9.156s0,6.867-.254,9.156a11.8,11.8,0,0,1-.763,4.323,8.932,8.932,0,0,1-4.323,4.323,11.8,11.8,0,0,1-4.323.763c-2.289,0-3.052.254-9.156.254s-6.867,0-9.156-.254a11.8,11.8,0,0,1-4.323-.763,8.932,8.932,0,0,1-4.323-4.323,11.8,11.8,0,0,1-.763-4.323c0-2.289-.254-3.052-.254-9.156s0-6.867.254-9.156A11.8,11.8,0,0,1,5.086,9.41a9.134,9.134,0,0,1,1.78-2.543A4.3,4.3,0,0,1,9.41,5.086a11.8,11.8,0,0,1,4.323-.763c2.289-.254,3.052-.254,9.156-.254m0-4.069a75.144,75.144,0,0,0-9.41.254,15.7,15.7,0,0,0-5.6,1.017A9.956,9.956,0,0,0,3.815,3.815,9.956,9.956,0,0,0,1.272,7.884a11.588,11.588,0,0,0-1.017,5.6A75.144,75.144,0,0,0,0,22.889,75.144,75.144,0,0,0,.254,32.3a15.7,15.7,0,0,0,1.017,5.6,9.956,9.956,0,0,0,2.543,4.069,9.956,9.956,0,0,0,4.069,2.543,15.7,15.7,0,0,0,5.6,1.017,75.145,75.145,0,0,0,9.41.254,75.145,75.145,0,0,0,9.41-.254,15.7,15.7,0,0,0,5.6-1.017,10.67,10.67,0,0,0,6.612-6.612,15.7,15.7,0,0,0,1.017-5.6c0-2.543.254-3.306.254-9.41a75.145,75.145,0,0,0-.254-9.41,15.7,15.7,0,0,0-1.017-5.6,9.956,9.956,0,0,0-2.543-4.069,9.956,9.956,0,0,0-4.069-2.543A15.7,15.7,0,0,0,32.3.254,75.144,75.144,0,0,0,22.889,0m0,11.19a11.51,11.51,0,0,0-11.7,11.7,11.7,11.7,0,1,0,11.7-11.7m0,19.328a7.493,7.493,0,0,1-7.63-7.63,7.493,7.493,0,0,1,7.63-7.63,7.493,7.493,0,0,1,7.63,7.63,7.493,7.493,0,0,1-7.63,7.63M35.1,7.884a2.8,2.8,0,1,0,2.8,2.8,2.822,2.822,0,0,0-2.8-2.8" transform="translate(973.669 2354.601)"/>
  </g>
</svg>
