<svg xmlns="http://www.w3.org/2000/svg" xmlns:xlink="http://www.w3.org/1999/xlink" width="96.724" height="44.246" viewBox="0 0 96.724 44.246">
  <defs>
    <style>
      .cls-1 {
        fill: url(#linear-gradient);
      }

      .cls-2 {
        fill: #fff;
        font-size: 20px;
        font-family: SegoeUI, Segoe UI;
      }
    </style>
    <linearGradient id="linear-gradient" x1="0.084" x2="1" y2="1" gradientUnits="objectBoundingBox">
      <stop offset="0" stop-color="#fcab62"/>
      <stop offset="1" stop-color="#eb5b27"/>
    </linearGradient>
  </defs>
  <g id="Orange_Button" data-name="Orange Button" transform="translate(-1577.091 51.845)">
    <path id="Subtraction_2" data-name="Subtraction 2" class="cls-1" d="M89.522,44.246H7.2a7.211,7.211,0,0,1-7.2-7.2V7.2A7.211,7.211,0,0,1,7.2,0H89.522a7.211,7.211,0,0,1,7.2,7.2v29.84A7.211,7.211,0,0,1,89.522,44.246ZM9.451,2.675A6.591,6.591,0,0,0,2.641,9.007V35.239a6.591,6.591,0,0,0,6.809,6.332H87.274a6.591,6.591,0,0,0,6.81-6.332V9.007a6.591,6.591,0,0,0-6.81-6.332Z" transform="translate(1577.091 -51.845)"/>
    <text id="Go" class="cls-2" transform="translate(1623.255 -24.488)"><tspan x="-12.72" y="0">Go</tspan></text>
  </g>
</svg>
