<svg xmlns="http://www.w3.org/2000/svg" width="21.1" height="21.1" viewBox="0 0 21.1 21.1">
  <defs>
    <style>
      .cls-1, .cls-2 {
        fill: none;
      }

      .cls-2 {
        stroke: #eb5b27;
        stroke-linecap: round;
        stroke-width: 2px;
      }

      .cls-3, .cls-4 {
        stroke: none;
      }

      .cls-4 {
        fill: #eb5b27;
      }
    </style>
  </defs>
  <g id="Small_X" transform="translate(-322 -18)">
    <g id="Path_11" data-name="Path 11" class="cls-1" transform="translate(322 18)">
      <path class="cls-3" d="M10.55,0A10.55,10.55,0,1,1,0,10.55,10.55,10.55,0,0,1,10.55,0Z"/>
      <path class="cls-4" d="M 10.55003356933594 2.000003814697266 C 5.835533142089844 2.000003814697266 2.000003814697266 5.835513114929199 2.000003814697266 10.55000305175781 C 2.000003814697266 15.26449298858643 5.835533142089844 19.10000228881836 10.55003356933594 19.10000228881836 C 15.26453399658203 19.10000228881836 19.10006332397461 15.26449298858643 19.10006332397461 10.55000305175781 C 19.10006332397461 5.835513114929199 15.26453399658203 2.000003814697266 10.55003356933594 2.000003814697266 M 10.55003356933594 3.814697265625e-06 C 16.37665367126465 3.814697265625e-06 21.10006332397461 4.723392486572266 21.10006332397461 10.55000305175781 C 21.10006332397461 16.37660217285156 16.37665367126465 21.10000228881836 10.55003356933594 21.10000228881836 C 4.723413467407227 21.10000228881836 3.814697265625e-06 16.37660217285156 3.814697265625e-06 10.55000305175781 C 3.814697265625e-06 4.723392486572266 4.723413467407227 3.814697265625e-06 10.55003356933594 3.814697265625e-06 Z"/>
    </g>
    <line id="Line_36" data-name="Line 36" class="cls-2" x2="9.498" transform="translate(329.497 25.497) rotate(45)"/>
    <line id="Line_37" data-name="Line 37" class="cls-2" y2="9.498" transform="translate(336.214 25.497) rotate(45)"/>
  </g>
</svg>
