<svg xmlns="http://www.w3.org/2000/svg" width="16.539" height="15.599" viewBox="0 0 16.539 15.599">
  <defs>
    <style>
      .cls-1 {
        fill: #eb5b27;
        fill-rule: evenodd;
      }
    </style>
  </defs>
  <g id="Snap_small" transform="translate(-211 -613.401)">
    <path id="Snap" class="cls-1" d="M501.738,224.15c0-.763.011-1.486,0-2.208a4.172,4.172,0,0,1,3.544-3.987,4.963,4.963,0,0,1,3.879.75,4.115,4.115,0,0,1,1.782,3.59c0,.614,0,1.229,0,1.886a3.582,3.582,0,0,1,.577-.164,2.486,2.486,0,0,1,.815-.012.688.688,0,0,1,.6.667,1.092,1.092,0,0,1-.4.724,4.843,4.843,0,0,1-1.052.475c-.566.232-.644.4-.358.936a4.445,4.445,0,0,0,2.907,2.468.849.849,0,0,1,.52.409.55.55,0,0,1-.317.706,7.537,7.537,0,0,1-1.421.516c-.311.074-.482.165-.552.5-.129.613-.353.739-.981.6a2.869,2.869,0,0,0-2.57.548,3.615,3.615,0,0,1-4.76.012,2.84,2.84,0,0,0-2.6-.545c-.6.147-.839-.009-.966-.625-.064-.309-.215-.416-.52-.485a8.053,8.053,0,0,1-1.39-.48.654.654,0,0,1-.41-.718c.045-.323.318-.4.587-.461a4.409,4.409,0,0,0,2.983-2.7.369.369,0,0,0-.188-.538c-.19-.1-.395-.162-.591-.246a5.817,5.817,0,0,1-.657-.3.786.786,0,0,1-.444-1,1.031,1.031,0,0,1,1.159-.493c.192.057.381.123.575.173A1.1,1.1,0,0,0,501.738,224.15Z" transform="translate(-287.054 395.55)"/>
  </g>
</svg>
